<?xml version="1.0" encoding="UTF-8"?>
<svg width="256" height="160" clip-rule="evenodd" stroke-linecap="round" stroke-linejoin="round" stroke-miterlimit="10" version="1.1" viewBox="0 0 256 160" xml:space="preserve" xmlns="http://www.w3.org/2000/svg" xmlns:vectornator="http://vectornator.io">

<clipPath id="ArtboardFrame">
<rect width="256" height="160"/>
</clipPath>
<g id="Untitled" clip-path="url(#ArtboardFrame)" vectornator:layerName="Untitled"><g fill="#e8f8ff">
<path d="m2.8422e-14 16c0-8.8366 7.1634-16 16-16 8.8366 0 16 7.1634 16 16 0 8.8366-7.1634 16-16 16-8.8366 0-16-7.1634-16-16z" vectornator:layerName="Oval 24"/>
<path d="m224 16c0-8.8366 7.163-16 16-16s16 7.1634 16 16c0 8.8366-7.163 16-16 16s-16-7.1634-16-16z" vectornator:layerName="Oval 23"/>
<path d="m2.8422e-14 144c0-8.837 7.1634-16 16-16 8.8366 0 16 7.163 16 16s-7.1634 16-16 16c-8.8366 0-16-7.163-16-16z" vectornator:layerName="Oval 25"/>
<path d="m224 144c0-8.837 7.163-16 16-16s16 7.163 16 16-7.163 16-16 16-16-7.163-16-16z" vectornator:layerName="Oval 22"/>
<path d="m16 0h224v160h-224v-160z" vectornator:layerName="Rectangle 21"/>
<path d="m4.2633e-14 16h256v128h-256v-128z" vectornator:layerName="Rectangle 20"/></g><g fill="#0a3f87">
<path d="m36 88c0-4.4183 3.5817-8 8-8s8 3.5817 8 8c0 4.4182-3.5817 8-8 8s-8-3.5818-8-8z" vectornator:layerName="Oval 26"/>
<path d="m52 88c0-4.4183 3.5817-8 8-8s8 3.5817 8 8c0 4.4182-3.5817 8-8 8s-8-3.5818-8-8z" vectornator:layerName="Oval 15"/>
<path d="m36 72c0-4.4183 3.5817-8 8-8s8 3.5817 8 8c0 4.4182-3.5817 7.9999-8 7.9999s-8-3.5817-8-7.9999z" vectornator:layerName="Oval 16"/>
<path d="m52 72c0-4.4183 3.5817-8 8-8s8 3.5817 8 8c0 4.4182-3.5817 7.9999-8 7.9999s-8-3.5817-8-7.9999z" vectornator:layerName="Oval 17"/>
<path d="m44 64h16v32h-16v-32z" vectornator:layerName="Rectangle 16"/>
<path d="m36 72h32v16h-32v-16z" vectornator:layerName="Rectangle 22"/></g><g fill="#ffe08d">
<path d="m44 68h16v24h-16v-24z" vectornator:layerName="Rectangle 18"/>
<path d="m40 72h24v16h-24v-16z" vectornator:layerName="Rectangle 19"/>
<path d="m40 88c0-2.2091 1.7909-4 4-4s4 1.7909 4 4-1.7909 4-4 4-4-1.7909-4-4z" vectornator:layerName="Oval 18"/>
<path d="m40 72c0-2.2092 1.7909-4 4-4s4 1.7908 4 4c0 2.2091-1.7909 3.9999-4 3.9999s-4-1.7908-4-3.9999z" vectornator:layerName="Oval 19"/>
<path d="m56 72c0-2.2092 1.7909-4 4-4s4 1.7908 4 4c0 2.2091-1.7909 3.9999-4 3.9999s-4-1.7908-4-3.9999z" vectornator:layerName="Oval 20"/>
<path d="m56 88c0-2.2091 1.7909-4 4-4s4 1.7909 4 4-1.7909 4-4 4-4-1.7909-4-4z" vectornator:layerName="Oval 21"/>
</g><path d="m45.669 80.482c-1.0173 0.4303-1.4928 1.6077-1.0625 2.625 0.4021 0.9508 1.0216 1.8341 1.75 2.5625s1.5492 1.2853 2.5 1.6875c0.9779 0.4136 2.0433 0.625 3.125 0.625 1.0816 0 2.1471-0.2114 3.125-0.625 0.9508-0.4022 1.834-0.9591 2.5625-1.6875 0.7284-0.7284 1.2853-1.6117 1.6875-2.5625 0.4303-1.0173-0.0452-2.1947-1.0625-2.625s-2.1947 0.0452-2.625 1.0625c-0.2007 0.4745-0.4471 0.9471-0.8125 1.3125s-0.838 0.6118-1.3125 0.8125c-0.4871 0.206-1.0186 0.3125-1.5625 0.3125-0.544 0-1.0755-0.1065-1.5625-0.3125-0.4745-0.2007-0.8846-0.4471-1.25-0.8125s-0.6743-0.838-0.875-1.3125c-0.4303-1.0173-1.6077-1.4928-2.625-1.0625z" fill="#0a428b" vectornator:layerName="Curve 1"/><g fill="#0a3f87">
<path d="m82 81.999c-1.1046 0-2 0.8954-2 1.9999v16c0 1.1041 0.8954 2.0001 2 2.0001h8c1.1046 0 2-0.896 2-2.0001 0-1.1046-0.8954-2-2-2h-6v-14c0-1.1045-0.8954-1.9999-2-1.9999z" vectornator:layerName="Curve 33"/>
<path d="m162 82c-1.105 0-2 0.8954-2 2v16c0 1.1046 0.895 1.9996 2 1.9996s2-0.895 2-1.9996v-14h2c1.105 0 2-0.8955 2-2 0-1.1046-0.895-2-2-2h-4z" vectornator:layerName="Curve 30"/>
<path d="m114 81.999c-1.105 0-2 0.8954-2 1.9999v16c0 1.1041 0.895 2.0001 2 2.0001s2-0.896 2-2.0001v-14h2c1.105 0 2-0.8954 2-2 0-1.1045-0.895-1.9999-2-1.9999h-4z" vectornator:layerName="Curve 87"/>
<path d="m162 90c-1.105 0-2 0.8954-2 2 0 1.1045 0.895 1.9999 2 1.9999h4c1.105 0 2-0.8954 2-1.9999 0-1.1046-0.895-2-2-2h-4z" vectornator:layerName="Curve 38"/>
<path d="m114 89.999c-1.105 0-2 0.8954-2 2s0.895 2 2 2h4c1.105 0 2-0.8954 2-2s-0.895-2-2-2h-4z" vectornator:layerName="Curve 88"/>
<path d="m166 82c-1.105 0-2 0.8954-2 2 0 1.1045 0.895 2 2 2s2 0.8954 2 1.9999c0 1.1046-0.895 2-2 2s-2 0.8954-2 2c0 1.1045 0.895 1.9999 2 1.9999 3.314 0 6-2.6862 6-5.9999 0-3.3136-2.686-5.9999-6-5.9999z" vectornator:layerName="Curve 44"/>
<path d="m118 81.999c-1.105 0-2 0.8954-2 1.9999 0 1.1046 0.895 2 2 2s2 0.8954 2 2c0 1.1045-0.895 1.9999-2 1.9999s-2 0.8954-2 2 0.895 2 2 2c3.314 0 6-2.6863 6-5.9999 0-3.3137-2.686-5.9999-6-5.9999z" vectornator:layerName="Curve 89"/>
<path d="m178 94c-1.105 0-2 0.8954-2 2 0 3.3136 2.686 5.9995 6 5.9995s6-2.6859 6-5.9995c0-1.1046-0.895-2-2-2s-2 0.8954-2 2c0 1.1045-0.895 2-2 2s-2-0.8955-2-2c0-1.1046-0.895-2-2-2z" vectornator:layerName="Curve 35"/>
<path d="m130 93.999c-1.105 0-2 0.8954-2 1.9999 0 3.3137 2.686 6.0001 6 6.0001s6-2.6864 6-6.0001c0-1.1045-0.895-1.9999-2-1.9999s-2 0.8954-2 1.9999c0 1.1046-0.895 2-2 2s-2-0.8954-2-2c0-1.1045-0.895-1.9999-2-1.9999z" vectornator:layerName="Curve 23"/>
<path d="m182 82c-3.314 0-6 2.6863-6 5.9999 0 1.1046 0.895 2 2 2s2-0.8954 2-2c0-1.1045 0.895-1.9999 2-1.9999s2 0.8954 2 1.9999c0 1.1046 0.895 2 2 2s2-0.8954 2-2c0-3.3136-2.686-5.9999-6-5.9999z" vectornator:layerName="Curve 32"/>
<path d="m214 82c-3.314 0-6 2.6863-6 5.9999 0 1.1046 0.895 2 2 2s2-0.8954 2-2c0-1.1045 0.895-1.9999 2-1.9999s2 0.8954 2 1.9999c0 1.1046 0.895 2 2 2s2-0.8954 2-2c0-3.3136-2.686-5.9999-6-5.9999z" vectornator:layerName="Curve 39"/>
<path d="m178 86c-1.105 0-2 0.8954-2 1.9999v7.9999c0 1.1045 0.895 2 2 2s2-0.8955 2-2v-7.9999c0-1.1045-0.895-1.9999-2-1.9999z" vectornator:layerName="Curve 37"/>
<path d="m130 81.999c-1.105 0-2 0.8954-2 1.9999v12c0 1.1046 0.895 2 2 2s2-0.8954 2-2v-12c0-1.1045-0.895-1.9999-2-1.9999z" vectornator:layerName="Curve 28"/>
<path d="m210 86c-1.105 0-2 0.8954-2 1.9999v12c0 1.1046 0.895 1.9996 2 1.9996s2-0.895 2-1.9996v-12c0-1.1045-0.895-1.9999-2-1.9999z" vectornator:layerName="Curve 36"/>
<path d="m186 86c-1.105 0-2 0.8954-2 1.9999v7.9999c0 1.1045 0.895 2 2 2s2-0.8955 2-2v-7.9999c0-1.1045-0.895-1.9999-2-1.9999z" vectornator:layerName="Curve 34"/>
<path d="m138 81.999c-1.105 0-2 0.8954-2 1.9999v12c0 1.1046 0.895 2 2 2s2-0.8954 2-2v-12c0-1.1045-0.895-1.9999-2-1.9999z" vectornator:layerName="Curve 43"/>
<path d="m218 86c-1.105 0-2 0.8954-2 1.9999v12c0 1.1046 0.895 1.9996 2 1.9996s2-0.895 2-1.9996v-12c0-1.1045-0.895-1.9999-2-1.9999z" vectornator:layerName="Curve 24"/>
<path d="m202 82c-1.105 0-2 0.8954-2 2v7.5467l-4.219-8.4373c-0.944-1.8876-3.781-1.2198-3.781 0.8906v16c0 1.1046 0.895 1.9996 2 1.9996s2-0.895 2-1.9996v-7.5467l4.219 8.4373c0.944 1.888 3.781 1.22 3.781-0.8906v-16c0-1.1046-0.895-2-2-2z" vectornator:layerName="Curve 41"/>
<path d="m210 90c-1.105 0-2 0.8954-2 2 0 1.1045 0.895 1.9999 2 1.9999h8c1.105 0 2-0.8954 2-1.9999 0-1.1046-0.895-2-2-2h-8z" vectornator:layerName="Curve 29"/>
<path d="m98 97.999c-1.1046 0-2 0.8954-2 2 0 1.1041 0.8954 2.0001 2 2.0001h8c1.105 0 2-0.896 2-2.0001 0-1.1046-0.895-2-2-2h-8z" vectornator:layerName="Curve 90"/>
<path d="m98 81.999c-1.1046 0-2 0.8954-2 1.9999 0 1.1046 0.8954 2 2 2h8c1.105 0 2-0.8954 2-2 0-1.1045-0.895-1.9999-2-1.9999h-8z" vectornator:layerName="Curve 91"/>
<path d="m102 81.999c-1.105 0-2 0.8954-2 1.9999v16c0 1.1041 0.895 2.0001 2 2.0001s2-0.896 2-2.0001v-16c0-1.1045-0.895-1.9999-2-1.9999z" vectornator:layerName="Curve 92"/></g><g fill="#0a428b">
<path d="m82 58c-1.1046 0-2 0.8954-2 2v16c0 1.1046 0.8954 2 2 2s2-0.8954 2-2v-16c0-1.1046-0.8954-2-2-2z" vectornator:layerName="Curve 76"/>
<path d="m90 58c-1.1046 0-2 0.8954-2 2 0 3.3137-2.6863 5.9999-6 6-1.1046 0-2 0.8954-2 2 0 1.1045 0.8954 2 2 2 5.5228 0 10-4.4772 10-10 0-1.1046-0.8954-2-2-2z" vectornator:layerName="Curve 77"/>
<path d="m82 66c-1.1046 0-2 0.8954-2 2 0 1.1045 0.8954 2 2 2 3.3137 0 6 2.6862 6 5.9999 0 1.1046 0.8954 2 2 2s2-0.8954 2-2c0-5.5228-4.4772-9.9999-10-9.9999z" vectornator:layerName="Curve 83"/>
<path d="m98 70c-1.1046 0-2 0.8954-2 1.9999 0 3.3137 2.6863 6 6 6 3.314 0 6-2.6863 6-6 0-1.1045-0.895-2-2-1.9999-1.105 0-2 0.8954-2 1.9999 0 1.1046-0.895 2-2 2s-2-0.8954-2-2c0-1.1045-0.8954-2-2-1.9999z" vectornator:layerName="Curve 79"/>
<path d="m162 70c-1.105 0-2 0.8954-2 1.9999 0 3.3137 2.686 6 6 6s6-2.6863 6-6c0-1.1045-0.895-2-2-1.9999-1.105 0-2 0.8954-2 1.9999 0 1.1046-0.895 2-2 2s-2-0.8954-2-2c0-1.1045-0.895-2-2-1.9999z" vectornator:layerName="Curve 82"/>
<path d="m130 70c-1.105 0-2 0.8954-2 1.9999 0 3.3137 2.686 6 6 6s6-2.6863 6-6c0-1.1045-0.895-2-2-1.9999-1.105 0-2 0.8954-2 1.9999 0 1.1046-0.895 2-2 2s-2-0.8954-2-2c0-1.1045-0.895-2-2-1.9999z" vectornator:layerName="Curve 72"/>
<path d="m98 58c-1.1046 0-2 0.8954-2 2v12c0 1.1046 0.8954 2 2 2s2-0.8954 2-2v-12c0-1.1046-0.8954-2-2-2z" vectornator:layerName="Curve 73"/>
<path d="m162 58c-1.105 0-2 0.8954-2 2v12c0 1.1046 0.895 2 2 2s2-0.8954 2-2v-12c0-1.1046-0.895-2-2-2z" vectornator:layerName="Curve 80"/>
<path d="m130 58c-1.105 0-2 0.8954-2 2v12c0 1.1046 0.895 2 2 2s2-0.8954 2-2v-12c0-1.1046-0.895-2-2-2z" vectornator:layerName="Curve 71"/>
<path d="m106 58c-1.105 0-2 0.8954-2 2v12c0 1.1046 0.895 2 2 2s2-0.8954 2-2v-12c0-1.1046-0.895-2-2-2z" vectornator:layerName="Curve 81"/>
<path d="m170 58c-1.105 0-2 0.8954-2 2v12c0 1.1046 0.895 2 2 2s2-0.8954 2-2v-12c0-1.1046-0.895-2-2-2z" vectornator:layerName="Curve 85"/>
<path d="m138 58c-1.105 0-2 0.8954-2 2v12c0 1.1046 0.895 2 2 2s2-0.8954 2-2v-12c0-1.1046-0.895-2-2-2z" vectornator:layerName="Curve 74"/>
<path d="m114 58c-1.105 0-2 0.8954-2 2v16c0 1.1046 0.895 2 2 2h8c1.105 0 2-0.8954 2-2 0-1.1045-0.895-2-2-2h-6v-14c0-1.1046-0.895-2-2-2z" vectornator:layerName="Curve 75"/>
<path d="m150 58c-1.105 0-2 0.8954-2 2s0.895 2 2 2 2 0.8954 2 2c0 1.1045-0.895 2-2 2s-2 0.8954-2 2c0 1.1045 0.895 2 2 2 3.314 0 6-2.6863 6-6s-2.686-6-6-6z" vectornator:layerName="Curve 78"/>
<path d="m146 58c-1.105 0-2 0.8954-2 2v16c0 1.1046 0.895 2 2 2s2-0.8954 2-2v-14h2c1.105 0 2-0.8954 2-2s-0.895-2-2-2h-4z" vectornator:layerName="Curve 84"/>
<path d="m146 66c-1.105 0-2 0.8954-2 2 0 1.1045 0.895 2 2 2h4c1.105 0 2-0.8955 2-2 0-1.1046-0.895-2-2-2h-4z" vectornator:layerName="Curve 86"/>
</g></g>
 <path d="m16 0c-8.864 0-16 7.136-16 16v128c0 8.864 7.136 16 16 16h224c8.864 0 16-7.136 16-16v-128c0-8.864-7.136-16-16-16zm0 1h224c8.31 0 15 6.69 15 15v128c0 8.31-6.69 15-15 15h-224c-8.31 0-15-6.69-15-15v-128c0-8.31 6.69-15 15-15z" fill="currentColor" opacity=".2"/>
</svg>
