<svg width="256" height="160" version="1.1" viewBox="0 0 256 160" xmlns="http://www.w3.org/2000/svg">
 <rect x="32" y="57.5" width="72" height="45" ry="9" fill="#c061cb"/>
 <rect x="36.5" y="62" width="63" height="36" ry="4.5" fill="#241f31"/>
 <path d="m195.21 61.043v10.833c0 1.2527 0.44102 1.9412 1.5349 1.9412 0.38815 0 0.63584-0.05389 0.82991-0.14215l-0.19384-1.0941c-0.15879 0.0353-0.23054 0.03589-0.31875 0.03589-0.21173 0-0.40491-0.17591-0.40491-0.63465v-10.94zm-69.25 0.31732c-0.56459 0-0.97061 0.38881-0.97061 0.95341 0 0.58224 0.40603 0.95194 0.97061 0.95194s0.97062-0.36971 0.97062-0.95194c0-0.56459-0.40603-0.95341-0.97062-0.95341zm18.968 0c-0.56459 0-0.9706 0.38881-0.9706 0.95341 0 0.58224 0.40602 0.95194 0.9706 0.95194s0.96923-0.36971 0.96923-0.95194c0-0.56459-0.4046-0.95341-0.96923-0.95341zm-25.107 3.4589c-1.1821 0-2.0644 0.63428-2.876 1.4459h-0.0532l-0.12349-1.2348h-1.2003v8.5747h1.4474v-6.21c0.86453-0.86453 1.464-1.3239 2.3462-1.3239 1.1292 0 1.6239 0.6889 1.6239 2.2945v5.2394h1.4459v-5.4346c0-2.1878-0.81072-3.3512-2.6104-3.3512zm13.78 0c-1.0233 0-1.9239 0.63428-2.6649 1.4459h-0.0532l-0.12348-1.2348h-1.1989v8.5747h1.4459v-6.21c0.79396-0.88218 1.5171-1.3239 2.1523-1.3239 1.0939 0 1.6067 0.6889 1.6067 2.2945v5.2394h1.4459v-6.21c0.79395-0.88218 1.4818-1.3239 2.1523-1.3239 1.0763 0 1.5881 0.6889 1.5881 2.2945v5.2394h1.4474v-5.4346c0-2.1878-0.84741-3.3512-2.6118-3.3512-1.041 0-1.923 0.67076-2.8228 1.6411-0.35288-1.0233-1.0577-1.6411-2.3634-1.6411zm23.43 0c-1.0057 0-1.959 0.54612-2.7353 1.199h-0.0516l-0.12348-0.98789h-1.2004v12.192h1.4474v-2.8932l-0.0359-1.5004c0.79396 0.61753 1.5881 0.98929 2.382 0.98929 1.9584 0 3.7045-1.7122 3.7045-4.6234 0-2.6642-1.1817-4.375-3.3871-4.375zm9.0158 0c-2.0996 0-3.9701 1.6398-3.9701 4.5157 0 2.8406 1.8705 4.4827 3.9701 4.4827s3.9701-1.6421 3.9701-4.4827c0-2.8759-1.8705-4.5157-3.9701-4.5157zm10.48 0c-1.1821 0-2.0644 0.63428-2.876 1.4459h-0.0532l-0.12348-1.2348h-1.199v8.5747h1.4459v-6.21c0.86453-0.86453 1.4654-1.3239 2.3476-1.3239 1.1292 0 1.6225 0.6889 1.6225 2.2945v5.2394h1.4474v-5.4346c0-2.1878-0.81212-3.3512-2.6118-3.3512zm8.6108 0c-1.3762 0-2.576 0.59968-3.3699 1.1113l0.56429 1.0051c0.67045-0.45873 1.5706-0.91746 2.5587-0.91746 1.4115 0 1.7646 1.0584 1.7646 2.1523-3.6522 0.4058-5.258 1.3417-5.258 3.2119 0 1.535 1.0764 2.4352 2.5055 2.4352 1.0762 0 2.0285-0.5658 2.8401-1.2362h0.0532l0.12346 1.0238h1.199v-5.258c0-2.1349-0.88122-3.5278-2.9808-3.5278zm17.784 0c-1.3762 0-2.576 0.59968-3.3699 1.1113l0.56428 1.0051c0.67045-0.45873 1.5706-0.91746 2.5587-0.91746 1.4115 0 1.7646 1.0584 1.7646 2.1523-3.6522 0.4058-5.258 1.3417-5.2581 3.2119 0 1.535 1.0764 2.4352 2.5055 2.4352 1.0762 0 2.0285-0.5658 2.8401-1.2362h0.0532l0.12345 1.0238h1.2004v-5.258c0-2.1349-0.88262-3.5278-2.9822-3.5278zm-77.705 0.21107v8.5748h1.4459v-8.5748zm18.966 0v8.5748h1.4474v-8.5748zm21.86 0.98789c1.4821 0 2.4711 1.3407 2.4711 3.3168 0 1.9584-0.989 3.2823-2.4711 3.2823-1.4644 0-2.4696-1.3238-2.4696-3.2823 0-1.9761 1.0052-3.3168 2.4696-3.3168zm-9.3864 0.01871c1.6232 0 2.2586 1.2695 2.2586 3.1574 0 2.1172-1.0409 3.4058-2.4524 3.4058-0.56459 0-1.3229-0.24746-2.0992-0.90025v-4.4984c0.84689-0.75868 1.5696-1.1645 2.293-1.1645zm29.995 3.087v2.382c-0.82924 0.74103-1.4997 1.1472-2.329 1.1472-0.84688 0-1.5176-0.40657-1.5176-1.3769 0-1.0939 0.98832-1.7994 3.8466-2.1523zm17.784 0v2.382c-0.82924 0.74103-1.4997 1.1472-2.3289 1.1472-0.84689 0-1.5176-0.40657-1.5176-1.3769 0-1.0939 0.98832-1.7994 3.8466-2.1523zm-55.153 2.4697c-0.58223 0-1.0596 0.45955-1.0596 1.13 0 0.63517 0.47741 1.0941 1.0596 1.0941 0.56459 0 1.041-0.45894 1.041-1.0941 0-0.67046-0.47639-1.13-1.041-1.13zm42.291 0c-0.58224 0-1.0582 0.45955-1.0582 1.13 0 0.63517 0.47598 1.0941 1.0582 1.0941 0.56459 0 1.041-0.45894 1.041-1.0941 0-0.67046-0.47638-1.13-1.041-1.13zm-75.206 5.9946v16.852c0 1.9487 0.68617 3.0181 2.3878 3.0181 0.60381 0 0.98892-0.08248 1.2908-0.21968l-0.30153-1.7015c-0.247 0.05495-0.35813 0.05601-0.49535 0.05601-0.32936 0-0.63033-0.27571-0.63033-0.98929v-17.016zm8.1513 0.49393c-0.87829 0-1.509 0.60495-1.509 1.4832 0 0.9057 0.63081 1.4818 1.509 1.4818 0.87827 0 1.5105-0.57607 1.5105-1.4818 0-0.87827-0.63224-1.4832-1.5105-1.4832zm57.416 0c-0.87829 0-1.509 0.60495-1.509 1.4832 0 0.9057 0.6308 1.4818 1.509 1.4818 0.87823 0 1.509-0.57607 1.509-1.4818 0-0.87827-0.6308-1.4832-1.509-1.4832zm29.504 0c-0.87827 0-1.509 0.60495-1.509 1.4832 0 0.9057 0.6308 1.4818 1.509 1.4818 0.87828 0 1.5105-0.57607 1.5105-1.4818 0-0.87827-0.63224-1.4832-1.5105-1.4832zm-74.926 5.3801c-1.5644 0-3.0467 0.85107-4.2544 1.8666h-0.0833l-0.19097-1.5378h-1.8666v18.966h2.25v-4.5013l-0.0546-2.3332c1.235 0.96063 2.4694 1.5363 3.7045 1.5363 3.0464 0 5.7649-2.6622 5.7649-7.1907 0-4.1442-1.8388-6.8058-5.2695-6.8058zm35.87 0c-1.8388 0-3.2101 0.98744-4.4726 2.2499h-0.0833l-0.19241-1.9212h-1.8651v13.339h2.25v-9.6606c1.3448-1.3448 2.2776-2.059 3.6499-2.059 1.7565 0 2.5257 1.0705 2.5257 3.568v8.1513h2.2499v-8.4527c0-3.4032-1.2626-5.215-4.062-5.215zm21.435 0c-1.5918 0-2.9926 0.98744-4.1453 2.2499h-0.0818l-0.1924-1.9212h-1.8651v13.339h2.2499v-9.6606c1.235-1.3723 2.3603-2.059 3.3484-2.059 1.7016 0 2.4969 1.0705 2.4969 3.568v8.1513h2.2514v-9.6606c1.2351-1.3723 2.3054-2.059 3.3484-2.059 1.6741 0 2.4696 1.0705 2.4696 3.568v8.1513h2.25v-8.4527c0-3.4032-1.3174-5.215-4.062-5.215-1.6193 0-2.991 1.0434-4.3907 2.5529-0.54892-1.5918-1.6462-2.5529-3.6772-2.5529zm-70.452 0.3288v13.339h2.25v-13.339zm21.792 0v8.4542c0 3.4032 1.2624 5.2135 4.0893 5.2135 1.8388 0 3.1558-0.96047 4.3908-2.4151h0.0819l0.1924 2.0863h1.8666v-13.339h-2.25v9.4694c-1.2625 1.5644-2.2231 2.2499-3.5953 2.2499-1.7565 0-2.4983-1.0705-2.4983-3.568v-8.1513zm35.623 0v13.339h2.2514v-13.339zm29.505 0v13.339h2.2499v-13.339zm-74.353 1.5651c2.525 0 3.5135 1.9753 3.5135 4.912 0 3.2935-1.6194 5.2968-3.815 5.2968-0.87827 0-2.0589-0.38302-3.2666-1.3985v-6.9997c1.3174-1.1801 2.4427-1.8106 3.568-1.8106z" fill="currentColor"/>
 <path d="m16 0c-8.864 0-16 7.136-16 16v128c0 8.864 7.136 16 16 16h224c8.864 0 16-7.136 16-16v-128c0-8.864-7.136-16-16-16zm0 1h224c8.31 0 15 6.69 15 15v128c0 8.31-6.69 15-15 15h-224c-8.31 0-15-6.69-15-15v-128c0-8.31 6.69-15 15-15z" fill="currentColor" opacity=".2"/>
</svg>
