<?xml version="1.0" encoding="UTF-8"?>
<svg width="256" height="160" version="1.1" viewBox="0 0 256 160" xmlns="http://www.w3.org/2000/svg">
 <path d="m16 1h224c8.31 0 15 6.69 15 15v128c0 8.31-6.69 15-15 15h-224c-8.31 0-15-6.69-15-15v-128c0-8.31 6.69-15 15-15z" fill="#21264a"/>
 <path d="m16 0c-8.864 0-16 7.136-16 16v128c0 8.864 7.136 16 16 16h224c8.864 0 16-7.136 16-16v-128c0-8.864-7.136-16-16-16zm0 1h224c8.31 0 15 6.69 15 15v128c0 8.31-6.69 15-15 15h-224c-8.31 0-15-6.69-15-15v-128c0-8.31 6.69-15 15-15z" fill="currentColor" opacity=".2"/>
 <g transform="translate(-7.2869 -1.7055)">
  <g stroke-width=".16086">
   <path d="m87.147 45.974c-0.66079-0.0076-1.3375 0.0042-2.0308 0.03645-7.765 0.36027-15.531 5.1032-15.531 5.1032s-2.9136-2.4314-8.0074-2.1063c-3.5952 0.22948-11.251 1.9731-11.251 1.9731s-9.2344-2.7867-14.568 0.06472c-4.0384 2.159-6.9152 5.561-8.5073 10.256-0.91868 4.7831-2.523 9.288 0 15.467-3.2856 9.8271-6.9746 19.51 0 33.006 0.8031 1.4049 1.9459 2.7063 3.6539 3.9256 0.63336 0.45217 1.8407 0.58462 2.5273 0.95101 3.2312 1.7242 6.8396 3.5363 10.371 4.3564 5.0717 1.1777 12.791-1e-5 15.137 0.3679 1.9414 0.3044 18.949 4.3314 27.047 2.2913 12.189-3.0708 15.261-10.046 20.074-17.614 1.2946-2.0354 2.4903-4.2039 3.5498-6.4456 3.5115-8.3043 4.9948-16.876 0-26.302 1.8285-4.8084 0.4509-6.9441 0-9.8524-3.6309-8.6241-10.329-15.34-22.464-15.479z" fill="#31386e"/>
   <path d="m36.127 57.636c3.8098-1.8845 8.0193-0.39695 9.4648 1.4666 0.92951 1.1983 2.7899 1.6038 4.2914 1.8171 2.9197 0.41479 4.7442-1.9971 6.8338-3.4612 1.6779-1.1757 3.8112-2.0543 5.9463-1.9525 4.3477 0.20725 6.4987 3.3404 6.6562 4.5262 0 0 2.4119-2.1597 3.905-2.6625 1.0949-0.36869 3.4612-0.17749 3.4612-0.17749s2.9828-4.1291 7.0556-4.016c5.8252 0.16178 7.3797 5.0442 7.3797 5.0442s4.2002-2.4105 8.5509 0.3604c3.7776 2.406 4.7997 8.4404 1.3806 11.986 1.3724 0.60698 6.288 7.6593 6.0742 14.492-0.25828 8.2599-5.84 14.66-9.4961 15.886 0.10016 0.10016-3.5273 7.1859-6.6562 9.4961-4.5174 3.3356-10.491 4.2679-16.419 4.0824-4.4828-0.14024-9.5531-1.4872-13.224-2.485-1.0093-0.27434-1.5585-0.48341-2.6041-0.50651-3.0312-0.0669-4.5771 1.0828-9.5545 0.95026-6.5191-0.17365-17.921-4.6807-18.771-18.594-0.55974-9.1754 4.721-16.694 7.3218-18.415-1.553-0.88767-5.9463-6.1195-5.5913-10.872 0.20754-2.7777 1.4971-5.7319 3.9938-6.9668z" fill="#475787"/>
   <path d="m85.565 57.353c-0.19581-6.43e-4 -0.39177 0.01171-0.58562 0.03645-2.8367 0.36148-3.5378 3.0705-3.3893 5.0717 0.15547 2.0973 2.1796 4.3906 4.2769 4.2364 3.0348-0.22329 4.181-1.9597 3.7977-5.3938-0.30599-2.7414-2.2068-3.9452-4.0996-3.9509zm-45.887 2.2165c-0.2359-0.0098-0.46707-4e-3 -0.69057 0.01539-2.2116 0.19229-2.7943 1.9078-2.727 3.4202 0.17741 3.9893 3.8074 11.305 9.5677 13.524-3.0951 0.9097-10.079 6.3103-9.6013 14.388 0.66583 11.262 8.5792 17.358 15.939 17.366 3.3492 4e-3 6.2749-1.0428 8.3766-2.3074 1.8309-1.1017 3.0632-2.4436 3.0632-2.4436 0 1e-5 6.1109 5.2409 13.834 4.8686 7.4256-0.35797 12.379-4.4717 12.869-8.3423 0.06751-0.53336-0.22181-1.5976-0.22181-1.5976 2.6941 0.1124 7.1487-2.7935 8.9798-8.6502 0.76352-2.4422 0.57819-5.6046 0.40528-8.9444-0.06083-1.1748-0.06665-1.85-0.17656-2.7682-0.65264-5.4509-8.1274-10.592-12.942-10.606-6.9502-0.02017-12.694 7.3276-13.174 8.7366 0 0-2.8007-2.1967-6.8783-1.4198-2.7932 0.53215-4.8367 5.4579-4.8367 5.4579-0.80114-1.3613-1.6919-2.1846-2.5737-3.0616 2.6945-0.25657 7.479-3.8767 7.588-9.7181 0.05644-3.0221-1.3975-4.5512-4.3932-5.8575-0.67426-0.29403-2.8509 0.3588-3.6291 1.093-2.4566 2.3178-5.2049 4.3313-8.5818 4.2674-2.5927-0.04902-4.4008-2.3999-5.4846-4.3802-1.1743-2.1455-3.0616-2.9715-4.713-3.0402zm36.021 1.4989c-0.12972 0.0026-0.2594 0.0121-0.38864 0.02859-2.8367 0.36148-3.6317 3.102-3.4832 5.1032 0.15547 2.0973 2.2736 4.5475 4.3709 4.3932 3.0348-0.22329 4.5023-2.2181 3.8606-5.6133-0.46361-2.4534-2.4137-3.951-4.3596-3.9114zm19.583 0.09677c-0.19506 0.0045-0.38978 0.02309-0.58249 0.05561-2.9376 0.49585-3.7485 3.3311-3.4519 5.1346 0.34131 2.0751 2.242 4.3279 4.3395 4.1735 3.0348-0.22329 4.181-1.9597 3.7977-5.3938-0.30598-2.7414-2.2173-4.0137-4.1029-3.97z"/>
   <path d="m50.103 68.336c-2.4216-0.06984-4.7202-1.8565-6.1665-3.6296-0.38228-1.727-2.2675-3.7506-4.5576-3.8087-1.741-0.04414-2.1512 1.995-1.7879 3.0986 1.5372 4.6707 4.2546 10.31 12.869 10.162 4.6705-0.08056 11.906-2.0986 12.381-8.6087 0.06187-0.8481 0.25178-1.9208-0.46705-2.3752-0.64566-0.40807-2.2942-0.13434-2.7042 0.22411-2.66 2.3259-6.034 5.0394-9.5659 4.9376z" fill="#6c6"/>
   <path d="m52.228 76.466c-7.8711 0.14778-14.796 6.75-14.81 14.057-0.01383 7.0397 6.0143 12.921 12.551 13.053 7.2653 0.14693 14.075-5.1645 13.555-13.806-0.34947-5.8072-4.2936-13.436-11.296-13.304z" fill="#39f"/>
   <path d="m85.687 58.643c-1.8552 0.04184-2.8845 0.99972-2.8879 2.7-0.0032 1.638 1.0197 2.7534 2.5408 2.7843 1.6906 0.03419 3.1617-0.82746 3.0406-2.8384-0.081317-1.3512-1.2714-2.6781-2.6934-2.646zm9.7738 3.8395c-1.8552 0.04184-2.8845 0.99972-2.8879 2.7-0.0032 1.638 1.0197 2.7534 2.5408 2.7843 1.6906 0.03419 3.1617-0.82778 3.0406-2.8385-0.08132-1.3512-1.2714-2.6778-2.6934-2.6456zm-19.475 0.0069c-1.8552 0.04184-2.8845 0.99972-2.8879 2.7-0.0032 1.638 1.0197 2.7534 2.5408 2.7843 1.6906 0.03419 3.1617-0.82778 3.0406-2.8385-0.08132-1.3512-1.2714-2.6778-2.6934-2.6456zm10.687 6.5022c-0.15014-0.0026-0.29836-6.44e-4 -0.44456 0.0066-4.9998 0.24586-9.5014 3.5553-11.847 7.9636 1.7752 1.7785 2.7211 3.4448 2.7166 5.7484-0.0075 3.7818-0.80233 7.9913-0.80233 7.9913s0.1057 0.4501 0.36642 0.36555c1.3374-0.43368 3.8835-0.50011 4.9544-0.22996 1.1383 0.2871 4.0527 2.3461 5.1266 3.4755 6.1807-1.4895 11.792-7.5024 11.347-14.897-0.33854-5.6256-6.762-10.344-11.416-10.424z" fill="#fc6"/>
   <path d="m68.469 76.019c3.5382 0.03421 4.6035 2.8152 4.8705 6.4482 0.3399 4.6257-2.4391 9.8409-4.1973 13.243-0.09506 0.18398-0.14643 0.47482 0 0.62125 0.20918 0.20918 0.77555 0.30193 1.013 0.12551 2.9053-2.1584 5.0757-3.7848 8.2115-4.3694 3.6864-0.68709 7.7827 2.8034 7.6487 5.6486-0.17164 3.6431-7.0829 5.7809-10.04 5.8726-3.6943 0.1147-7.7684-0.61926-10.841-2.6022 1.0095-2.8419 0.63793-6.1456 0.40747-8.1322-0.57901-4.991-0.69374-6.4704-3.2091-11.499 0.18616-0.42332 0.38051-0.83186 0.58138-1.2227 1.3374-2.6024 2.6543-4.1625 5.5545-4.1346z" fill="#f39"/>
   <path d="m62.847 65.486c-1.3686 2.3442-2.7642 4.1752-4.8591 4.6646-6.1427 3.2543-11.397 2.6667-16.522 0.82472v0.0013c1.9451 1.9255 4.7545 3.2558 8.9939 3.1826 4.6705-0.08056 11.906-2.0987 12.381-8.6088 0.0014-0.02054 0.0037-0.04363 0.0053-0.06441z" fill="#4e9f48"/>
   <path d="m63.144 87.157c-0.63732 5.6688-3.627 8.508-7.2034 9.8492-7.973 2.9897-15.861-0.4112-18.085-3.2083 1.4947 5.5015 6.6243 9.6678 12.114 9.7788 7.2653 0.14693 14.075-5.1645 13.555-13.806-0.0507-0.84247-0.17945-1.7234-0.37984-2.6133z" fill="#147cdd"/>
   <path d="m70.462 76.429c2.4211 5.8232 1.5152 11.231 0.05467 16.568 3.22e-4 -4.83e-4 6.43e-4 -9.65e-4 9.65e-4 -0.0015 0.08231-0.16914 0.16356-0.34779 0.2457-0.52091 0.1462-0.30827 0.29135-0.62054 0.43451-0.94003 0.14981-0.3342 0.29918-0.67015 0.44204-1.0145 0.16584-0.39969 0.3239-0.80656 0.47503-1.2168 0.04819-0.13092 0.09538-0.2622 0.1417-0.39398 0.03619-0.1029 0.07345-0.20547 0.10839-0.30883 0.0847-0.25076 0.16578-0.50262 0.24224-0.7556 0.023-0.07603 0.04348-0.15254 0.06567-0.22872 0.05642-0.19398 0.11077-0.38834 0.16149-0.58311 0.02432-0.09336 0.04715-0.18676 0.07006-0.28025 0.04656-0.19007 0.08973-0.38019 0.13007-0.57055 0.01739-0.08201 0.03599-0.16398 0.05216-0.246 0.05244-0.26619 0.09963-0.53255 0.13824-0.79832 0.0062-0.04279 0.0099-0.08541 0.01571-0.12818 0.03118-0.22847 0.05688-0.45648 0.07666-0.68397 0.0072-0.08236 0.01197-0.16444 0.01759-0.24663 0.01305-0.19187 0.02139-0.383 0.02545-0.57369 0.0018-0.08415 0.0044-0.1684 0.0044-0.25229-1.03e-4 -0.26371-0.0063-0.5266-0.02544-0.78702-0.02325-0.31641-0.05482-0.62349-0.09143-0.92556-0.0076-0.06312-0.01562-0.12608-0.02387-0.18851-0.04023-0.30298-0.08627-0.59988-0.14295-0.88504-0.02804-0.14188-0.05922-0.2805-0.09174-0.41754-0.0045-0.01869-8e-3 -0.03829-0.01261-0.05687-0.02634-0.10775-0.05612-0.21188-0.08546-0.31638-0.01533-0.05492-0.03-0.11032-0.04619-0.16432-0.03325-0.11031-0.06894-0.21827-0.10587-0.32455-0.01498-0.0433-0.03058-0.08589-0.04619-0.12849-0.04198-0.11402-0.08497-0.22697-0.13164-0.33586-0.16675-0.38907-0.36415-0.7442-0.59725-1.0603-0.0013-0.0017-0.0022-0.0036-0.0035-0.0053-8.04e-4 -0.0011-0.0017-0.0021-0.0026-0.0031-0.39082-0.52749-0.88165-0.94506-1.4961-1.2256zm12.215 16.531c2.4756 10.407-10.484 9.3805-17.218 6.9279-0.08671 0.3745-0.19223 0.74523-0.32077 1.1084 0.12568 0.0812 0.24935 0.16489 0.37828 0.24191 0.03453 0.0206 0.06829 0.0422 0.10305 0.0625 0.25908 0.15156 0.52384 0.29566 0.79455 0.43105 0.01928 0.01 0.03911 0.0184 0.05844 0.028 0.24389 0.12061 0.49284 0.23358 0.74492 0.3415 0.05812 0.0249 0.11618 0.0499 0.17468 0.0742 0.26875 0.11122 0.5405 0.21735 0.81686 0.3148 3e-3 9.6e-4 0.0059 2e-3 0.0088 3e-3 0.28723 0.10111 0.57908 0.19361 0.87309 0.28024 0.05746 0.0169 0.11542 0.0326 0.17312 0.049 0.24414 0.0694 0.49001 0.13375 0.73768 0.19353 0.0568 0.0137 0.11333 0.0283 0.17028 0.0415 0.299 0.0694 0.59978 0.13319 0.90232 0.18914 0.0097 2e-3 0.0193 3e-3 0.0289 5e-3 0.28065 0.0515 0.56267 0.096 0.84514 0.13636 0.08101 0.0116 0.16208 0.0223 0.24317 0.033 0.25189 0.0331 0.504 0.0622 0.75623 0.0867 0.04356 4e-3 0.08713 0.01 0.1307 0.0135 0.29712 0.0272 0.59421 0.0483 0.89038 0.0641 0.06851 4e-3 0.13673 6e-3 0.20516 9e-3 0.23513 0.0104 0.46955 0.0172 0.70313 0.0207 0.07565 1e-3 0.15139 3e-3 0.22684 3e-3 0.29241 2e-3 0.58371-4.8e-4 0.87216-9e-3 0.36956-0.0115 0.80079-0.0548 1.2731-0.12913 1.8891-0.29743 4.4326-1.0895 6.2939-2.3086 0.23265-0.15238 0.45481-0.31133 0.66354-0.47692s0.40417-0.33796 0.58374-0.5165c0.08979-0.0893 0.17548-0.17994 0.25699-0.2724 0.24455-0.27737 0.45048-0.5692 0.60888-0.87467 0.05275-0.10174 0.10043-0.205 0.14232-0.30978 3.7e-5 -9.1e-5 -3.7e-5 -1.6e-4 0-3.21e-4 0.12575-0.31464 0.20101-0.64278 0.2171-0.98431 0.0046-0.09896 0.0032-0.19882-0.0022-0.2991-0.0017-0.03164-0.0058-0.06343-0.0085-0.09519-0.0059-0.07061-0.01318-0.14135-0.02388-0.21238-0.0051-0.03406-0.01145-0.06828-0.01759-0.10242-0.0132-0.07275-0.02857-0.14571-0.04649-0.21867-0.0071-0.02872-0.01392-0.05734-0.02168-0.08609-0.02318-0.08564-0.04947-0.17135-0.07886-0.25699-0.0057-0.01664-0.01042-0.03333-0.01634-0.04996-0.04455-0.12481-0.09722-0.24914-0.15426-0.37324-0.05976-0.13059-0.12804-0.26027-0.20075-0.38926-0.03163-0.05585-0.06281-0.11171-0.09677-0.16715-0.07801-0.1279-0.16222-0.25446-0.25197-0.37953-0.05185-0.07194-0.10722-0.14256-0.16274-0.21333-0.05086-0.06509-0.1042-0.12925-0.15803-0.19322-0.11363-0.13447-0.23316-0.26629-0.3591-0.39492-0.03638-0.03729-0.0723-0.0748-0.10965-0.11153-0.27917-0.2736-0.58401-0.53178-0.91049-0.76784-0.0068-0.0049-0.0139-0.0095-0.02073-0.01444-0.22396-0.16089-0.45735-0.31203-0.69874-0.45053z" fill="#b01574"/>
   <path d="m87.974 60.036c-0.58894 2.1434-2.2752 3.3832-4.5885 3.1028l-0.0022 0.05938c0.0547 0.06975 0.11288 0.13584 0.17437 0.19856 0.0037 0.0039 0.0078 0.0075 0.01158 0.01132 0.05738 0.05774 0.11802 0.11229 0.18097 0.16369 0.0084 0.0068 0.01691 0.01367 0.02544 0.02042 0.05913 0.04692 0.12072 0.09045 0.18442 0.13164 0.01327 0.0085 0.02644 0.01715 0.03991 0.02545 0.05924 0.03663 0.1209 0.0702 0.1838 0.10179 0.01934 0.0097 0.03845 0.01973 0.05813 0.0289 0.06001 0.02814 0.122 0.05314 0.18505 0.07666 0.02276 0.0085 0.04503 0.0176 0.06818 0.02544 0.06272 0.02134 0.12775 0.03918 0.19322 0.05593 0.02557 0.0064 0.05037 0.01431 0.07635 0.02011 0.06913 0.01549 0.14045 0.02675 0.21238 0.03708 0.02273 0.0032 0.04455 0.0082 0.06755 0.01094 0.0961 0.01145 0.19435 0.0187 0.29502 0.02073 0.21132 0.0042 0.41934-0.0053 0.62112-0.02953 1.4125-0.16951 2.5253-1.0493 2.4195-2.8088-0.0063-0.1054-0.02059-0.21015-0.04084-0.31417-0.0018-0.0094-0.0041-0.01862-0.0059-0.02796-0.06548-0.31718-0.19112-0.62556-0.35942-0.91049zm-9.6337 3.9661c-0.79891 3.1075-2.7367 2.9249-4.511 3.2149 0.05546 0.05828 0.11376 0.11372 0.17468 0.16588 0.12184 0.10434 0.25448 0.19599 0.39681 0.27428 0.07064 0.03885 0.14363 0.07415 0.21898 0.10619 0.0077 0.0032 0.01583 0.0059 0.02356 0.0091 0.06849 0.0283 0.13836 0.05446 0.2105 0.07698 0.01431 0.0045 0.02952 0.0075 0.04399 0.01158 0.06716 0.01968 0.13506 0.03821 0.20516 0.05279 0.01884 0.0039 0.03876 0.0059 0.05781 0.0094 0.06639 0.01235 0.13288 0.02436 0.2017 0.03204 0.08967 0.01004 0.18134 0.01602 0.27491 0.01791 0.21132 0.0042 0.41934-0.0053 0.62112-0.02953 0.90811-0.10902 1.6922-0.51171 2.1084-1.2529 0.04625-0.08233 0.08791-0.16874 0.12472-0.25951 0.14731-0.36304 0.21656-0.7939 0.18631-1.2966-0.0058-0.09703-0.01808-0.19379-0.03581-0.28968-6.43e-4 -0.0032-0.0013-0.0064-0.0019-0.0098-0.05446-0.28798-0.15961-0.56892-0.30003-0.8332zm19.517 0.06535c-1.0452 2.8173-2.8892 3.106-5.1848 1.9636 0.03361 0.13421 0.07733 0.26159 0.12692 0.38424 0.0076 0.01884 0.01526 0.03769 0.02325 0.05624 0.05082 0.1181 0.10828 0.23077 0.17342 0.33681 0.0072 0.01171 0.01524 0.02268 0.02262 0.03424 0.06431 0.1009 0.13464 0.19617 0.21143 0.28496 0.0079 9e-3 0.01499 0.01874 0.02293 0.02764 0.07982 0.08953 0.16715 0.17133 0.25919 0.24726 0.01782 0.0147 0.03608 0.02888 0.05436 0.04305 0.09411 0.07303 0.1925 0.14068 0.29785 0.19919 0.01055 0.0059 0.02203 0.01029 0.03267 0.01602 0.09956 0.05333 0.20456 0.09935 0.31324 0.13918 0.02064 0.0076 0.04063 0.01619 0.06158 0.02325 0.11587 0.03906 0.23688 0.06943 0.36193 0.09268 0.02422 0.0045 0.04897 0.0081 0.07352 0.01197 0.13122 0.02081 0.2655 0.03581 0.4056 0.03864 0.21132 0.0042 0.41934-0.0053 0.62112-0.02953 1.4125-0.16958 2.5253-1.0496 2.4195-2.8091-0.0054-0.0909-0.01633-0.18142-0.03204-0.27145-5.1e-5 -3.21e-4 5.2e-5 -6.43e-4 0-9.65e-4 -3.21e-4 -0.0014-6.43e-4 -3e-3 -9.65e-4 -0.0044-0.04764-0.26949-0.13919-0.5337-0.26328-0.78356zm0.12724 14.78c-2.8927 13.112-14.633 11.822-21.277 9.1403-0.20508 1.5939-0.41471 2.7132-0.41471 2.7132s0.10594 0.44992 0.36664 0.36539c1.3374-0.43368 3.8833-0.4998 4.9543-0.22966 1.1372 0.28683 4.0462 2.3419 5.1227 3.472 0.05034-0.0121 0.10085-0.02279 0.15112-0.0355 0.082-0.02075 0.16392-0.0427 0.24568-0.06504 0.13328-0.03639 0.26611-0.07508 0.39869-0.11561 0.07589-0.0232 0.15184-0.04615 0.22747-0.07069 0.14532-0.04718 0.28993-0.0978 0.43419-0.14986 0.06463-0.02333 0.12946-0.04545 0.19385-0.06975 0.17276-0.06518 0.34435-0.13466 0.51525-0.20674 0.03423-0.01443 0.0689-0.0274 0.10305-0.04209 0.20267-0.08728 0.40398-0.17942 0.60354-0.27616 0.06192-0.03002 0.12282-0.06271 0.18442-0.09362 0.1373-0.0689 0.27412-0.13878 0.40969-0.21208 0.07483-0.04045 0.1488-0.08296 0.22306-0.12472 0.12382-0.06965 0.2473-0.14039 0.36948-0.21364 0.07315-0.04386 0.14583-0.08839 0.21835-0.13353 0.1223-0.0761 0.24338-0.15438 0.36382-0.23406 0.07111-0.04705 0.14226-0.09404 0.2127-0.14232 0.12039-0.08251 0.23923-0.16749 0.35754-0.25354 0.0659-0.04794 0.13239-0.09488 0.19762-0.14389 0.16536-0.12427 0.32868-0.2519 0.48949-0.38299 0.01197-0.0098 0.02449-0.01879 0.03644-0.02859 0.0011-9.64e-4 0.0023-0.0022 0.0035-0.0031 0.17616-0.14455 0.34914-0.29363 0.51933-0.44612 0.05385-0.04826 0.10606-0.09863 0.15929-0.14766 0.11518-0.1061 0.22969-0.21296 0.34182-0.32267 0.06218-0.06082 0.1229-0.12314 0.1841-0.18505 0.09991-0.10104 0.19902-0.20305 0.29627-0.30695 0.06319-0.06751 0.12553-0.13584 0.18756-0.20453 0.09641-0.10676 0.19113-0.21499 0.28464-0.32455 0.05474-0.06412 0.10965-0.12815 0.16337-0.19322 0.10119-0.12256 0.19976-0.2474 0.29722-0.37324 0.04481-0.05786 0.09047-0.11489 0.13447-0.17342 0.12118-0.16124 0.23924-0.3254 0.35408-0.49168 0.01695-0.02454 0.03503-0.04824 0.05183-0.07289 0.12874-0.18882 0.25245-0.3812 0.37261-0.5762 0.04158-0.06747 0.08075-0.13665 0.12128-0.20484 0.07722-0.12996 0.15356-0.26051 0.22684-0.39304 0.04476-0.08094 0.08746-0.16318 0.1307-0.24505 0.0672-0.12725 0.1332-0.25509 0.19668-0.38455 0.03973-0.08103 0.07864-0.16255 0.11687-0.24443 0.06146-0.13163 0.12062-0.26461 0.17814-0.39838 0.03661-0.08513 0.07342-0.17008 0.10839-0.25606 0.05712-0.14044 0.1107-0.28276 0.16337-0.42539 0.02825-0.07648 0.0579-0.15225 0.08483-0.22935 0.07456-0.21343 0.14464-0.42887 0.20892-0.64689 0.0021-0.0071 0.0048-0.01395 0.0069-0.02105 1.61e-4 -6.44e-4 4.83e-4 -0.0013 6.44e-4 -0.0019 0.06649-0.22699 0.12604-0.45666 0.18097-0.68836 0.017-0.07173 0.03095-0.14462 0.04682-0.21679 0.03556-0.16173 0.06985-0.32405 0.09959-0.48792 0.0156-0.08594 0.02876-0.1727 0.04272-0.25919 0.02476-0.15332 0.04737-0.30742 0.06692-0.46247 0.01171-0.09269 0.02225-0.1857 0.03204-0.27899 0.01569-0.1495 0.02853-0.29986 0.03928-0.45084 0.0068-0.09621 0.01406-0.19226 0.01885-0.28905 0.0081-0.16494 0.01171-0.33106 0.01382-0.49766 9.65e-4 -0.081 0.0041-0.16149 0.0037-0.24286-0.0013-0.2493-0.0081-0.50011-0.02325-0.75277-0.0048-0.08022-0.01535-0.15956-0.02262-0.2394l-0.08074-0.32831z" fill="#e6a32d"/>
  </g>
  <g fill="none">
   <g stroke="#fff" stroke-linecap="round" stroke-width="1.126">
    <path d="m38.924 62.032m0.30024 2.1504c0.34353 1.1487 0.92507 2.2762 1.4883 3.0898" stroke-linejoin="round"/>
    <path d="m55.452 68.442c1.6663-0.84469 3.1396-2.0337 4.3931-3.3504" stroke-linejoin="round"/>
    <path d="m39.066 88.281m0.40351-1.8261m0.96219-1.6747c0.36472-0.57615 0.60829-0.98864 1.1288-1.5735m1.7458-1.7296c1.206-1.0046 2.7261-2.0214 4.4198-2.761 0.26096-0.11395 1.1261-0.23881 1.5353-0.22379"/>
    <path d="m64.153 81.079s1.2265-2.4499 2.3596-3.1395c0.63596-0.38707 2.1903-0.4375 2.1903-0.4375"/>
    <path d="m71.583 96.863m1.6517-0.92006c2.0403-1.2884 4.34-2.999 7.3564-2.4968"/>
    <path d="m74.821 63.633"/>
    <path d="m84.318 60.121"/>
    <path d="m85.782 59.301"/>
    <path d="m94.158 63.882 0.44374-0.44374"/>
    <path d="m76.463 76.407m1.2709-1.2638m1.4724-1.3514c2.3035-1.9538 5.019-3.3811 9.238-2.8873"/>
   </g>
   <g stroke="#000" stroke-linecap="round" stroke-width="1.126">
    <path d="m42.517 87.811c4.1928 2.7938 9.1878 3.6187 15.975 0.04437"/>
    <path d="m51.969 81.776c-2.1914 6.1294-3.0517 11.815 0.39938 16.064"/>
    <path d="m78.593 83.063c4.4761 5.2937 8.894 7.3623 13.135-0.39938"/>
   </g>
   <g stroke="#fff" stroke-width=".80429">
    <path d="m85.896 108.94c0.15347-0.92897 2.1862 0.75549 2.824 0.0628 0.27068-0.29403 0.12953-0.88465-0.12551-1.1923-0.27874-0.3363-0.85799-0.69305-1.1996-0.42091-0.86907 0.69227 1.0829 3.2012-0.02441 3.2928-0.58025 0.048-1.5228-1.4494-1.4744-1.7423z"/>
    <path d="m89.332 104.92 1.8697-0.061 0.57103-0.16083-0.11613 0.48642-0.03919 2.0207" stroke-linecap="round" stroke-linejoin="round"/>
    <path d="m93.571 102.72c1.1665 0.60763 1.7966 0.0477 1.4866-1.6863" stroke-linecap="round"/>
   </g>
  </g>
 </g>
 <path d="m126.06 61.971c-1.9422 0-3.6502 1.2057-5.0566 2.7461h-0.09961l-0.23437-2.3438h-2.2774v16.273h2.7461v-11.787c1.5069-1.6743 2.8785-2.5098 4.084-2.5098 2.0761 0 3.0488 1.3043 3.0488 4.3516v9.9453h2.7441v-11.787c1.5069-1.6743 2.8135-2.5098 4.0859-2.5098 2.0426 0 3.0137 1.3043 3.0137 4.3516v9.9453h2.7461v-10.312c0-4.1523-1.6065-6.3633-4.9551-6.3633-1.9757 0-3.6516 1.2735-5.3594 3.1152-0.66972-1.9422-2.0084-3.1152-4.4863-3.1152zm26.186 0c-2.6119 0-4.8877 1.1383-6.3945 2.1094l1.0703 1.9102c1.2725-0.87064 2.9803-1.7422 4.8555-1.7422 2.6789 0 3.3496 2.0098 3.3496 4.0859-6.9316 0.77018-9.9785 2.5442-9.9785 6.0938 0 2.9133 2.0416 4.6211 4.7539 4.6211 2.0426 0 3.8503-1.0713 5.3906-2.3438h0.10156l0.23437 1.9414h2.2774v-9.9785c0-4.0518-1.6753-6.6973-5.6602-6.6973zm25.283 0c-1.9087 0-3.718 1.0384-5.1914 2.2773h-0.09961l-0.23438-1.875h-2.2773v23.139h2.7461v-5.4922l-0.06836-2.8457c1.5069 1.172 3.0146 1.875 4.5215 1.875 3.7169 0 7.0312-3.2483 7.0312-8.7734 0-5.0564-2.242-8.3047-6.4277-8.3047zm17.111 0c-3.9848 0-7.5352 3.1141-7.5352 8.5723 0 5.3912 3.5503 8.5059 7.5352 8.5059s7.5332-3.1146 7.5332-8.5059c0-5.4582-3.5484-8.5723-7.5332-8.5723zm19.891 0c-2.2436 0-3.9186 1.2057-5.459 2.7461h-0.09961l-0.23437-2.3438h-2.2774v16.273h2.7461v-11.787c1.6408-1.6408 2.7788-2.5098 4.4531-2.5098 2.1431 0 3.0801 1.3043 3.0801 4.3516v9.9453h2.7461v-10.312c0-4.1523-1.5395-6.3633-4.9551-6.3633zm16.34 0c-2.6119 0-4.8877 1.1383-6.3945 2.1094l1.0703 1.9102c1.2725-0.87064 2.9803-1.7422 4.8555-1.7422 2.6789 0 3.3496 2.0098 3.3496 4.0859-6.9316 0.77018-9.9785 2.5442-9.9785 6.0938 0 2.9133 2.0416 4.6211 4.7539 4.6211 2.0426 0 3.8522-1.0713 5.3926-2.3438h0.09961l0.23437 1.9414h2.2774v-9.9785c0-4.0518-1.6753-6.6973-5.6602-6.6973zm-36.23 2.2773c2.8128 0 4.6875 2.5445 4.6875 6.2949 0 3.7169-1.8747 6.2285-4.6875 6.2285-2.7793 0-4.6894-2.5116-4.6894-6.2285 0-3.7504 1.9101-6.2949 4.6894-6.2949zm-17.814 0.033203c3.0807 0 4.2852 2.4111 4.2852 5.9941 0 4.0183-1.9754 6.4629-4.6543 6.4629-1.0716 0-2.511-0.46805-3.9844-1.707v-8.5391c1.6073-1.4399 2.9806-2.2109 4.3535-2.2109zm-21.699 5.8613v4.5195c-1.5738 1.4064-2.8461 2.1777-4.4199 2.1777-1.6073 0-2.8809-0.77155-2.8809-2.6133 0-2.0761 1.876-3.4143 7.3008-4.084zm78.625 0v4.5195c-1.5738 1.4064-2.8461 2.1777-4.4199 2.1777-1.6073 0-2.8809-0.77155-2.8809-2.6133 0-2.0761 1.876-3.4143 7.3008-4.084zm-102.49 17.367v2.1777h1.7188v-2.1777h-1.7188zm30.543 0v14.539h1.7285v-5.1113l5.3164 5.1113h2.2422l-5.7832-5.5684 5.5488-4.8965h-2.1953l-5.1289 4.5137v-8.5879h-1.7285zm11.146 0v2.1777h1.7188v-2.1777h-1.7188zm-30.318 1.1035v2.9707h-1.2617v1.3359h1.2617v5.6816c0 1.3081 0.25132 2.2107 0.75585 2.709 0.50454 0.49207 1.4213 0.73828 2.748 0.73828h1.7656v-1.4394h-1.7656c-0.71631 0-1.193-0.12036-1.4297-0.36329-0.23046-0.24292-0.3457-0.79118-0.3457-1.6445v-5.6816h3.541v-1.3359h-3.541v-2.9707h-1.7285zm-18.51 2.7188c-0.76615 0-1.4261 0.15182-1.9805 0.45703-0.54814 0.29898-1.002 0.75993-1.3633 1.3828v-1.5879h-1.7285v14.445h1.7285v-5.5508c0.36127 0.62288 0.81514 1.0874 1.3633 1.3926 0.55437 0.29899 1.2143 0.44922 1.9805 0.44922 1.2707 0 2.3027-0.5046 3.0938-1.5137 0.79729-1.0091 1.1953-2.3361 1.1953-3.9805 0-1.6444-0.39802-2.9714-1.1953-3.9805-0.79106-1.0091-1.8231-1.5137-3.0938-1.5137zm30.096 0c-1.5012 0-2.6798 0.48533-3.5332 1.457-0.84712 0.9717-1.2695 2.318-1.2695 4.0371 0 1.7129 0.42241 3.0572 1.2695 4.0352 0.85335 0.9717 2.032 1.459 3.5332 1.459 1.4949 0 2.6681-0.48728 3.5215-1.459 0.85335-0.97793 1.2793-2.3222 1.2793-4.0352 0-1.7192-0.42594-3.0654-1.2793-4.0371-0.85335-0.9717-2.0266-1.457-3.5215-1.457zm35.139 0c-0.76615 0-1.4261 0.15182-1.9805 0.45703-0.54814 0.29898-1.002 0.75993-1.3633 1.3828v-1.5879h-1.7285v14.445h1.7285v-5.5508c0.36128 0.62288 0.81515 1.0874 1.3633 1.3926 0.55436 0.29899 1.2143 0.44922 1.9805 0.44922 1.2707 0 2.3027-0.5046 3.0937-1.5137 0.7973-1.0091 1.1953-2.3361 1.1953-3.9805 0-1.6444-0.39802-2.9714-1.1953-3.9805-0.79106-1.0091-1.8231-1.5137-3.0937-1.5137zm11.193 0c-1.5011 0-2.6779 0.48533-3.5312 1.457-0.84712 0.9717-1.2715 2.318-1.2715 4.0371 0 1.7129 0.42436 3.0572 1.2715 4.0352 0.85335 0.9717 2.0301 1.459 3.5312 1.459 1.4949 0 2.6701-0.48728 3.5234-1.459 0.85335-0.97793 1.2793-2.3222 1.2793-4.0352 0-1.7192-0.42595-3.0654-1.2793-4.0371-0.85335-0.9717-2.0285-1.457-3.5234-1.457zm12.697 0c-0.72877 0-1.373 0.15536-1.9336 0.4668-0.55437 0.31144-1.0362 0.78104-1.4473 1.4102v-1.625h-1.7285v10.465h1.7285v-5.9141c0-1.0215 0.26706-1.8282 0.80274-2.4199 0.53567-0.59174 1.2672-0.88867 2.1953-0.88867 0.77237 0 1.3521 0.2462 1.7383 0.73828s0.58008 1.2342 0.58008 2.2246v6.2598h1.7188v-6.3164c0-1.4451-0.30913-2.5381-0.92578-3.2793-0.61666-0.74746-1.5264-1.1211-2.7285-1.1211zm10.754 0c-0.5606 0-1.1368 0.062924-1.7285 0.1875-0.59174 0.11835-1.201 0.29809-1.8301 0.54102v1.5879c0.52322-0.28653 1.0679-0.50127 1.6348-0.64453 0.56682-0.14326 1.1501-0.21484 1.748-0.21484 0.94056 0 1.6686 0.21828 2.1856 0.6543 0.52322 0.42979 0.78516 1.041 0.78516 1.832v0.16797h-2.4102c-1.5634 0-2.7421 0.29852-3.5332 0.89648-0.78483 0.59797-1.1758 1.4849-1.1758 2.6621 0 1.0091 0.31424 1.8157 0.94336 2.4199 0.63534 0.59796 1.4872 0.89843 2.5586 0.89843 0.84712 0 1.5649-0.15023 2.1504-0.44922 0.58551-0.30521 1.0744-0.77481 1.4668-1.4102v1.5879h1.7188v-5.9707c0-1.5946-0.37364-2.7835-1.1211-3.5684-0.74746-0.78483-1.879-1.1777-3.3926-1.1777zm-92.74 0.25195v10.465h1.7188v-10.465h-1.7188zm41.689 0v10.465h1.7188v-10.465h-1.7188zm-49.248 1.1875c0.90941 0 1.6217 0.36144 2.1387 1.084 0.52322 0.71632 0.78516 1.7062 0.78516 2.9707 0 1.2645-0.26194 2.2579-0.78516 2.9805-0.51699 0.71632-1.2293 1.0742-2.1387 1.0742s-1.6252-0.3579-2.1484-1.0742c-0.51699-0.72254-0.77539-1.716-0.77539-2.9805 0-1.2645 0.2584-2.2544 0.77539-2.9707 0.52322-0.72254 1.239-1.084 2.1484-1.084zm65.234 0c0.90941 0 1.6217 0.36144 2.1387 1.084 0.52323 0.71632 0.78516 1.7062 0.78516 2.9707 0 1.2645-0.26193 2.2579-0.78516 2.9805-0.51699 0.71632-1.2293 1.0742-2.1387 1.0742s-1.6252-0.3579-2.1484-1.0742c-0.517-0.72254-0.7754-1.716-0.7754-2.9805 0-1.2645 0.2584-2.2544 0.7754-2.9707 0.52322-0.72254 1.239-1.084 2.1484-1.084zm-34.719 0.017578c0.91564 0 1.6401 0.36498 2.1758 1.0938 0.53568 0.72254 0.80469 1.7038 0.80469 2.9434 0 1.2458-0.26901 2.2286-0.80469 2.9512-0.53568 0.72255-1.2601 1.084-2.1758 1.084-0.92809 0-1.6616-0.3579-2.1973-1.0742-0.52945-0.72254-0.79297-1.7089-0.79297-2.9609s0.26705-2.2368 0.80273-2.9531c0.53568-0.72254 1.2656-1.084 2.1875-1.084zm46.332 0c0.91564 0 1.6421 0.36498 2.1777 1.0938 0.53568 0.72254 0.80273 1.7038 0.80273 2.9434 0 1.2458-0.26705 2.2286-0.80273 2.9512-0.53568 0.72255-1.2621 1.084-2.1777 1.084-0.92809 0-1.6596-0.3579-2.1953-1.0742-0.52945-0.72254-0.79492-1.7089-0.79492-2.9609s0.26901-2.2368 0.80469-2.9531c0.53568-0.72254 1.2637-1.084 2.1855-1.084zm24.535 4h1.7109v0.38281c0 1.1212-0.28986 2.0203-0.86914 2.6992-0.57306 0.67272-1.336 1.0098-2.2891 1.0098-0.6914 0-1.2396-0.17816-1.6445-0.5332-0.39864-0.36128-0.59765-0.84661-0.59765-1.457 0-0.76615 0.26705-1.3073 0.80273-1.625s1.4977-0.47656 2.8867-0.47656z" fill="#fff" stroke-width=".89694"/>
</svg>
