<?xml version="1.0" encoding="UTF-8"?>
<svg width="256" height="160" version="1.1" viewBox="0 0 256 160" xml:space="preserve" xmlns="http://www.w3.org/2000/svg"><rect width="256" height="160" ry="16" fill="#fff"/><path d="m16 0c-8.864 0-16 7.136-16 16v128c0 8.864 7.136 16 16 16h224c8.864 0 16-7.136 16-16v-128c0-8.864-7.136-16-16-16zm0 1h224c8.31 0 15 6.69 15 15v128c0 8.31-6.69 15-15 15h-224c-8.31 0-15-6.69-15-15v-128c0-8.31 6.69-15 15-15z" fill="currentColor" opacity=".2"/><path d="m34 52-4-12m44 12 4-12m0 28a24 20 0 0 1-12 17.32 24 20 0 0 1-24 0 24 20 0 0 1-12-17.32m24-20v-16m-24 36h48v52h-48z" fill="none" stroke="#1b68c5" stroke-linecap="round" stroke-linejoin="round" stroke-width="12"/><g fill="#1b68c5"><circle cx="46" cy="104" r="6" stroke-width=".999"/><circle cx="62" cy="104" r="6" stroke-width=".999"/><text x="101.504" y="92" display="none" font-family="'Noto Sans'" font-size="32px" font-weight="bold" style="line-height:1.25" xml:space="preserve"><tspan x="101.504" y="92" fill="#1b68c5" font-family="'Noto Sans'" font-size="32px" font-weight="bold">ma Seka</tspan></text><path d="m124.51 74.208q2.976 0 4.48 1.536 1.536 1.504 1.536 4.864v11.392h-4.768v-10.208q0-3.776-2.624-3.776-1.888 0-2.688 1.344t-0.8 3.872v8.768h-4.768v-10.208q0-3.776-2.624-3.776-1.984 0-2.752 1.504-0.736 1.472-0.736 4.256v8.224h-4.768v-17.472h3.648l0.64 2.24h0.256q0.8-1.344 2.176-1.952 1.408-0.608 2.912-0.608 1.92 0 3.232 0.64 1.344 0.608 2.08 1.92h0.416q0.8-1.344 2.208-1.952 1.44-0.608 2.944-0.608zm18.08-0.032q3.52 0 5.376 1.536 1.888 1.504 1.888 4.64v11.648h-3.328l-0.928-2.368h-0.128q-1.12 1.408-2.368 2.048t-3.424 0.64q-2.336 0-3.872-1.344t-1.536-4.192q0-2.784 1.952-4.096t5.856-1.472l3.04-0.096v-0.768q0-1.376-0.736-2.016-0.704-0.64-1.984-0.64t-2.496 0.384q-1.216 0.352-2.432 0.896l-1.568-3.232q1.376-0.704 3.104-1.12 1.728-0.448 3.584-0.448zm2.528 9.728-1.856 0.064q-2.304 0.064-3.2 0.832t-0.896 2.016q0 1.088 0.64 1.568 0.64 0.448 1.664 0.448 1.536 0 2.592-0.896 1.056-0.928 1.056-2.592zm31.808 1.76q0 3.04-2.208 4.864-2.176 1.792-6.208 1.792-3.616 0-6.464-1.376v-4.512q1.632 0.704 3.36 1.312 1.76 0.576 3.488 0.576 1.792 0 2.528-0.672 0.768-0.704 0.768-1.76 0-0.864-0.608-1.472-0.576-0.608-1.568-1.12-0.992-0.544-2.272-1.152-0.8-0.384-1.728-0.896-0.928-0.544-1.792-1.312-0.832-0.8-1.376-1.92t-0.544-2.688q0-3.072 2.08-4.768 2.08-1.728 5.664-1.728 1.792 0 3.392 0.416t3.392 1.184l-1.568 3.776q-1.568-0.64-2.816-0.992t-2.56-0.352q-1.376 0-2.112 0.64t-0.736 1.664q0 1.216 1.088 1.92t3.232 1.728q1.76 0.832 2.976 1.728 1.248 0.896 1.92 2.112t0.672 3.008zm10.976-11.456q3.616 0 5.728 2.08 2.112 2.048 2.112 5.856v2.304h-11.264q0.064 2.016 1.184 3.168 1.152 1.152 3.168 1.152 1.664 0 3.04-0.32 1.408-0.352 2.88-1.056v3.68q-1.312 0.64-2.72 0.928-1.408 0.32-3.424 0.32-2.624 0-4.64-0.96-2.016-0.992-3.168-2.944-1.152-1.984-1.152-5.024t1.024-5.088q1.056-2.048 2.912-3.072t4.32-1.024zm0.032 3.392q-1.408 0-2.304 0.896t-1.056 2.784h6.688q-0.032-1.568-0.864-2.624-0.8-1.056-2.464-1.056zm16.448-9.92v10.88q0 0.992-0.096 1.984-0.064 0.96-0.16 1.952h0.064q0.48-0.672 0.992-1.344t1.088-1.312l4.896-5.312h5.376l-6.944 7.584 7.36 9.888h-5.504l-5.024-7.072-2.048 1.632v5.44h-4.768v-24.32zm22.24 6.496q3.52 0 5.376 1.536 1.888 1.504 1.888 4.64v11.648h-3.328l-0.928-2.368h-0.128q-1.12 1.408-2.368 2.048t-3.424 0.64q-2.336 0-3.872-1.344t-1.536-4.192q0-2.784 1.952-4.096t5.856-1.472l3.04-0.096v-0.768q0-1.376-0.736-2.016-0.704-0.64-1.984-0.64t-2.496 0.384q-1.216 0.352-2.432 0.896l-1.568-3.232q1.376-0.704 3.104-1.12 1.728-0.448 3.584-0.448zm2.528 9.728-1.856 0.064q-2.304 0.064-3.2 0.832t-0.896 2.016q0 1.088 0.64 1.568 0.64 0.448 1.664 0.448 1.536 0 2.592-0.896 1.056-0.928 1.056-2.592z" aria-label="ma Seka"/></g></svg>
