<svg width="256" height="160" version="1.1" viewBox="0 0 256 160" xmlns="http://www.w3.org/2000/svg">
 <path d="m16 0c-8.864 0-16 7.136-16 16v128c0 8.864 7.136 16 16 16h224c8.864 0 16-7.136 16-16v-128c0-8.864-7.136-16-16-16zm0 1h224c8.31 0 15 6.69 15 15v128c0 8.31-6.69 15-15 15h-224c-8.31 0-15-6.69-15-15v-128c0-8.31 6.69-15 15-15z" fill="currentColor" opacity=".2"/>
 <g transform="matrix(.13865 0 0 .13865 -5.7344 50.97)">
  <path d="m433.6 315.39 30.566-24.655-6.1431-39.892 6.1431-39.892-28.417-28.663-18.479-35.884-39.836-6.4864-36.043-18.168-36.041 18.169-39.838 6.4859-18.479 35.884-28.417 28.663 6.1431 39.892-6.1431 39.892 30.566 24.655z" color="#000000" fill="#f6d32d" stroke-width="18.442px" style="-inkscape-stroke:none"/>
  <g stroke-width="18.462">
   <path d="m1043.1 84.616c-5.098 4e-5 -9.2307 4.1328-9.2307 9.2308s4.1327 9.2307 9.2307 9.2308c5.098 2e-5 9.2308-4.1327 9.2308-9.2308s-4.1328-9.2308-9.2308-9.2308zm64.615 0v120c5e-4 5.0978 4.133 9.2303 9.2308 9.2308h27.692v-18.462h-18.462v-55.385h18.462v-18.462h-18.462v-36.923zm129.23 0v129.23h18.462v-18.462h18.462v18.462h18.462v-27.692c-5e-4 -5.0978-4.133-9.2303-9.2308-9.2308h-17.38l16.406-32.776c2.2905-4.5696 0.4314-10.13-4.1467-12.404-2.1847-1.0918-4.713-1.2733-7.0312-0.50474-2.3263 0.77964-4.2466 2.4534-5.3366 4.6514l-10.204 20.409v-71.683zm83.077 0c-5.098-2e-5 -9.2308 4.1327-9.2308 9.2308s4.1328 9.2308 9.2308 9.2308c5.098 2e-5 9.2308-4.1327 9.2308-9.2308s-4.1328-9.2308-9.2308-9.2308zm-683.08 36.923c-5.0978 5.1e-4 -9.2303 4.133-9.2308 9.2308v36.923c5.1e-4 5.0978 4.133 9.2303 9.2308 9.2308h27.692v18.462h-36.923v18.462h46.154c5.0978-5.1e-4 9.2303-4.133 9.2308-9.2308v-36.923c-5.1e-4 -5.0978-4.133-9.2303-9.2308-9.2308h-27.692v-18.462h36.923v-18.462h-9.2308zm64.615 0v92.308h46.154c5.0978-5.1e-4 9.2303-4.133 9.2308-9.2308v-83.077h-18.462v73.846h-18.462v-73.846zm73.846 0v92.308h18.462v-73.846h18.462v73.846h18.462v-83.077c-5.1e-4 -5.0978-4.133-9.2303-9.2308-9.2308h-27.692zm83.077 0c-5.0978 5.1e-4 -9.2303 4.133-9.2308 9.2308v73.846c5.1e-4 5.0978 4.133 9.2303 9.2308 9.2308h36.923c5.0978-5.1e-4 9.2302-4.133 9.2308-9.2308v-73.846c-5.1e-4 -5.0978-4.133-9.2303-9.2308-9.2308zm101.54 0v110.77h18.462v-18.462h27.692c5.0978-4.9e-4 9.2303-4.133 9.2308-9.2308v-73.846c-5e-4 -5.0978-4.133-9.2303-9.2308-9.2308h-27.692zm73.846 0v92.308h18.462v-92.308zm138.46 0c-5.0978 4.9e-4 -9.2303 4.133-9.2308 9.2308v73.846c5e-4 5.0978 4.133 9.2303 9.2308 9.2308h36.923c5.0978-5.5e-4 9.2302-4.133 9.2307-9.2308v-73.846c-5e-4 -5.0978-4.1329-9.2302-9.2307-9.2308zm138.46 0v92.308h18.462v-92.308zm73.846 0v110.77h18.462v-18.462h27.692c5.0978-4.9e-4 9.2303-4.133 9.2308-9.2308v-73.846c-5e-4 -5.0978-4.133-9.2303-9.2308-9.2308h-27.692zm83.077 0c-5.0978 4.9e-4 -9.2303 4.133-9.2308 9.2308v73.846c5e-4 5.0978 4.133 9.2303 9.2308 9.2308h36.923c5.0978-4.9e-4 9.2303-4.133 9.2308-9.2308v-73.846c-5e-4 -5.0978-4.133-9.2303-9.2308-9.2308zm64.615 0v92.308h18.462v-73.846h18.462v73.846h18.462v-83.077c-5e-4 -5.0978-4.133-9.2303-9.2308-9.2308h-27.692zm83.077 0v18.462h27.692v18.462h-27.692c-5.0978 4.9e-4 -9.2303 4.133-9.2308 9.2308v36.923c5e-4 5.0978 4.133 9.2303 9.2308 9.2308h46.154v-83.077c-5e-4 -5.0978-4.133-9.2303-9.2308-9.2308h-27.692zm-747.69 18.462h18.462v55.385h-18.462zm110.77 0h18.462v55.385h-18.462zm203.08 0h18.462v55.385h-18.462zm221.54 0h18.462v55.385h-18.462zm73.846 0h18.462v55.385h-18.462zm147.69 36.923h18.462v18.462h-18.462z" color="#000000" fill="#3584e4" stroke-linecap="square" stroke-linejoin="round" style="-inkscape-stroke:none"/>
   <path d="m627.69 232.31v83.077a9.2317 9.2317 0 0 0 9.2308 9.2308h27.692v-18.462h-18.462v-36.923h18.462v-18.462h-18.462v-18.462zm129.23 0v92.308h18.462v-18.462h18.462v18.462h18.462v-27.692a9.2317 9.2317 0 0 0-9.2308-9.2308h-14.639l11.935-11.935a9.2308 9.2308 0 0 0 0-13.053 9.2308 9.2308 0 0 0-6.5264-2.7043 9.2308 9.2308 0 0 0-6.5264 2.7043l-11.935 11.935v-42.332zm83.077 0a9.2308 9.2308 0 0 0-9.2308 9.2308 9.2308 9.2308 0 0 0 9.2308 9.2308 9.2308 9.2308 0 0 0 9.2308-9.2308 9.2308 9.2308 0 0 0-9.2308-9.2308zm433.85 0v36.923h-27.692a9.2317 9.2317 0 0 0-9.2307 9.2308v36.923a9.2317 9.2317 0 0 0 9.2307 9.2308h46.154v-92.308zm230.77 0a9.2317 9.2317 0 0 0-9.2308 9.2308v27.692h18.462v-18.462h18.462v6.4543l-35.373 53.041a9.2317 9.2317 0 0 0 7.6803 14.351h46.154v-18.462h-28.918l27.368-41.034a9.2317 9.2317 0 0 0 1.5504-5.1202v-18.462a9.2317 9.2317 0 0 0-9.2307-9.2308zm73.846 0a9.2317 9.2317 0 0 0-9.2307 9.2308v73.846a9.2317 9.2317 0 0 0 9.2307 9.2308h36.923a9.2317 9.2317 0 0 0 9.2308-9.2308v-73.846a9.2317 9.2317 0 0 0-9.2308-9.2308zm73.846 0a9.2317 9.2317 0 0 0-9.2308 9.2308v27.692h18.462v-18.462h18.462v6.4543l-35.373 53.041a9.2317 9.2317 0 0 0 7.6803 14.351h46.154v-18.462h-28.918l27.368-41.034a9.2317 9.2317 0 0 0 1.5504-5.1202v-18.462a9.2317 9.2317 0 0 0-9.2307-9.2308zm93.209 0.072a9.2317 9.2317 0 0 0-7.4279 2.6322l-24.988 24.988 13.053 13.053 9.2308-9.2308v42.332h-18.462v18.462h55.385v-18.462h-18.462v-64.615a9.2317 9.2317 0 0 0-5.6972-8.5096 9.2317 9.2317 0 0 0-2.6322-0.64911zm-157.82 18.39h18.462v55.385h-18.462zm-895.38 18.462a9.2317 9.2317 0 0 0-9.2308 9.2308v36.923a9.2317 9.2317 0 0 0 9.2308 9.2308h36.923a9.2317 9.2317 0 0 0 9.2308-9.2308v-36.923a9.2317 9.2317 0 0 0-9.2308-9.2308zm138.46 0v55.385h18.462v-55.385zm73.846 0v73.846h18.462v-18.462h27.692a9.2317 9.2317 0 0 0 9.2308-9.2308v-36.923a9.2317 9.2317 0 0 0-9.2308-9.2308h-27.692zm83.077 0a9.2317 9.2317 0 0 0-9.2308 9.2308v36.923a9.2317 9.2317 0 0 0 9.2308 9.2308h36.923a9.2317 9.2317 0 0 0 9.2308-9.2308v-36.923a9.2317 9.2317 0 0 0-9.2308-9.2308zm64.615 0v55.385h18.462v-36.923h18.462v36.923h18.462v-46.154a9.2317 9.2317 0 0 0-9.2308-9.2308h-27.692zm101.54 0a9.2317 9.2317 0 0 0-6.5265 2.7043l-18.462 18.462a9.2317 9.2317 0 0 0-2.7044 6.5264v18.462a9.2317 9.2317 0 0 0 9.2308 9.2308h46.154v-46.154a9.2317 9.2317 0 0 0-9.2308-9.2308zm184.62 0a9.2317 9.2317 0 0 0-6.5264 2.7043l-18.462 18.462a9.2317 9.2317 0 0 0-2.7044 6.5264v18.462a9.2317 9.2317 0 0 0 9.2308 9.2308h46.154v-46.154a9.2317 9.2317 0 0 0-9.2307-9.2308zm46.154 0v46.154a9.2317 9.2317 0 0 0 9.2308 9.2308h27.692v18.462h-36.923v18.462h46.154a9.2317 9.2317 0 0 0 9.2308-9.2308v-83.077h-18.462v36.923h-18.462v-36.923zm-683.08 18.462h18.462v18.462h-18.462zm221.54 0h18.462v18.462h-18.462zm73.846 0h18.462v18.462h-18.462zm160.75 0h5.4086v18.462h-18.462v-5.4087zm97.716 0h18.462v18.462h-18.462zm86.899 0h5.4087v18.462h-18.462v-5.4087z" color="#000000" fill="#f6d32d" stroke-linecap="square" stroke-linejoin="round" style="-inkscape-stroke:none"/>
   <path d="m341.39 57.212a9.221 9.221 0 0 0-9.2308 9.1947v18.462a9.221 9.221 0 0 0 9.2308 9.2308 9.221 9.221 0 0 0 9.2308-9.2308v-18.462a9.221 9.221 0 0 0-9.2308-9.1947zm-108.39 35.228a9.221 9.221 0 0 0-5.4447 1.7308 9.221 9.221 0 0 0-2.0192 12.873l10.817 14.928a9.221 9.221 0 0 0 12.909 2.0553 9.221 9.221 0 0 0 2.0192-12.873l-10.853-14.928a9.221 9.221 0 0 0-5.9856-3.6779 9.221 9.221 0 0 0-1.4424-0.10893zm216.13 0a9.221 9.221 0 0 0-6.8149 3.7861l-10.817 14.928a9.221 9.221 0 0 0 2.0192 12.873 9.221 9.221 0 0 0 12.873-2.0553l10.853-14.892a9.221 9.221 0 0 0-2.0192-12.909 9.221 9.221 0 0 0-6.0937-1.7308zm-107.74 18.966-38.942 19.651-43.017 6.9952-19.94 38.762-30.685 30.938 6.6346 43.089-6.7428 43.738 14.351 11.575h-29.207a9.221 9.221 0 0 0-9.1947 9.2308 9.221 9.221 0 0 0 9.1947 9.2308h295.1a9.221 9.221 0 0 0 9.1947-9.2308 9.221 9.221 0 0 0-9.1947-9.2308h-29.207l14.351-11.575-6.7428-43.738 6.6346-43.089-30.685-30.938-19.94-38.762-43.053-6.9952zm0 20.661 33.173 16.731 36.635 5.9495 16.983 33.029 26.178 26.358-5.661 36.707 5.5529 36.058-23.87 19.255h-177.94l-23.906-19.255 5.5529-36.058-5.6611-36.707 26.142-26.358 17.019-33.029 36.635-5.9495zm-175.71 52.536a9.221 9.221 0 0 0-8.4736 6.3822 9.221 9.221 0 0 0 5.9495 11.647l17.524 5.6971a9.221 9.221 0 0 0 11.611-5.9135 9.221 9.221 0 0 0-5.9135-11.647l-17.524-5.6971a9.221 9.221 0 0 0-3.1731-0.46874zm351.42 0.0369a9.221 9.221 0 0 0-3.1731 0.43273l-17.524 5.6962a9.221 9.221 0 0 0-5.9135 11.647 9.221 9.221 0 0 0 11.611 5.9135l17.524-5.6971a9.221 9.221 0 0 0 5.9135-11.647 9.221 9.221 0 0 0-8.4375-6.3462zm-231.02 38.546a9.221 9.221 0 0 0-9.2308 9.2308c0 35.599 28.944 64.543 64.543 64.543 35.599 0 64.543-28.944 64.543-64.543a9.221 9.221 0 0 0-9.2308-9.2308 9.221 9.221 0 0 0-9.1947 9.2308c0 25.702-20.416 46.082-46.118 46.082-25.702 0-46.118-20.38-46.118-46.082a9.221 9.221 0 0 0-9.1947-9.2308z" color="#000000" fill="#3584e4" stroke-linecap="round" style="-inkscape-stroke:none"/>
  </g>
 </g>
</svg>
