<svg width="256" height="160" viewBox="0 0 256 160" fill="none" xmlns="http://www.w3.org/2000/svg">
<g clip-path="url(#clip0_1_2)">
<path d="M16 1H240C248.31 1 255 7.69 255 16V144C255 152.31 248.31 159 240 159H16C7.69 159 1 152.31 1 144V16C1 7.69 7.69 1 16 1Z" fill="#FDB973"/>
<path opacity="0.2" d="M16 0C7.136 0 0 7.136 0 16V144C0 152.864 7.136 160 16 160H240C248.864 160 256 152.864 256 144V16C256 7.136 248.864 0 240 0H16ZM16 1H240C248.31 1 255 7.69 255 16V144C255 152.31 248.31 159 240 159H16C7.69 159 1 152.31 1 144V16C1 7.69 7.69 1 16 1Z" fill="black"/>
<path d="M29.5 126.25V128.25H31.5H105.438H107.438V126.25V76.75V76.0161L106.963 75.4564L69.9628 31.8314L68.4362 30.0314L66.9111 31.8326L29.9736 75.4576L29.5 76.017V76.75V126.25Z" fill="#202020" stroke="#202020" stroke-width="4"/>
<path d="M29.5 126.25V128.25H31.5H105.438H107.438V126.25V76.75V76.0161L106.963 75.4564L69.9628 31.8314L68.4362 30.0314L66.9111 31.8326L29.9736 75.4576L29.5 76.017V76.75V126.25ZM91.8125 94.9549V113.312H45.125V94.9211C45.4776 95.8433 45.9227 96.6968 46.4485 97.4576C47.8664 99.5087 50.022 101.062 52.625 101.062C55.2532 101.062 57.4121 99.5152 58.8284 97.4524C59.5959 96.3346 60.1859 95.0186 60.5663 93.5809C60.9529 95.0225 61.5512 96.3402 62.3235 97.4576C63.7414 99.5087 65.897 101.062 68.5 101.062C71.1282 101.062 73.2871 99.5152 74.7034 97.4524C75.4504 96.3646 76.0291 95.089 76.4103 93.6962C76.7975 95.0928 77.3843 96.37 78.136 97.4576C79.5539 99.5087 81.7095 101.062 84.3125 101.062C86.9407 101.062 89.0996 99.5152 90.5159 97.4524C91.0315 96.7016 91.4669 95.8614 91.8125 94.9549ZM46.4485 81.9174C45.9227 82.6782 45.4776 83.5317 45.125 84.4539V80.407L68.4394 52.1995L91.8125 80.4084V84.4201C91.4669 83.5136 91.0315 82.6734 90.5159 81.9226C89.0996 79.8598 86.9407 78.3125 84.3125 78.3125C81.7095 78.3125 79.5539 79.8663 78.136 81.9174C77.3843 83.005 76.7975 84.2822 76.4103 85.6788C76.0291 84.286 75.4504 83.0104 74.7034 81.9226C73.2871 79.8598 71.1282 78.3125 68.5 78.3125C65.897 78.3125 63.7414 79.8663 62.3235 81.9174C61.5512 83.0348 60.9529 84.3525 60.5663 85.7941C60.1859 84.3564 59.5959 83.0404 58.8284 81.9226C57.4121 79.8598 55.2532 78.3125 52.625 78.3125C50.022 78.3125 47.8664 79.8663 46.4485 81.9174Z" fill="white" stroke="#202020" stroke-width="4"/>
<path d="M140.183 51.3636V54.9432H128.895V51.3636H140.183ZM131.682 46.6591H136.31V65.0938C136.31 65.7159 136.403 66.1932 136.591 66.5256C136.787 66.8494 137.043 67.071 137.358 67.1903C137.673 67.3097 138.023 67.3693 138.406 67.3693C138.696 67.3693 138.96 67.348 139.199 67.3054C139.446 67.2628 139.634 67.2244 139.761 67.1903L140.541 70.8082C140.294 70.8935 139.94 70.9872 139.48 71.0895C139.028 71.1918 138.474 71.2514 137.818 71.2685C136.659 71.3026 135.615 71.1278 134.686 70.7443C133.757 70.3523 133.02 69.7472 132.474 68.929C131.938 68.1108 131.673 67.0881 131.682 65.8608V46.6591ZM152.408 71.3835C150.49 71.3835 148.828 70.9616 147.422 70.1179C146.016 69.2741 144.925 68.0937 144.15 66.5767C143.382 65.0597 142.999 63.2869 142.999 61.2585C142.999 59.2301 143.382 57.4531 144.15 55.9276C144.925 54.402 146.016 53.2173 147.422 52.3736C148.828 51.5298 150.49 51.108 152.408 51.108C154.326 51.108 155.988 51.5298 157.394 52.3736C158.8 53.2173 159.887 54.402 160.654 55.9276C161.429 57.4531 161.817 59.2301 161.817 61.2585C161.817 63.2869 161.429 65.0597 160.654 66.5767C159.887 68.0937 158.8 69.2741 157.394 70.1179C155.988 70.9616 154.326 71.3835 152.408 71.3835ZM152.434 67.6761C153.473 67.6761 154.343 67.3906 155.042 66.8196C155.74 66.2401 156.26 65.4645 156.601 64.4929C156.951 63.5213 157.125 62.4389 157.125 61.2457C157.125 60.044 156.951 58.9574 156.601 57.9858C156.26 57.0057 155.74 56.2259 155.042 55.6463C154.343 55.0668 153.473 54.777 152.434 54.777C151.368 54.777 150.482 55.0668 149.775 55.6463C149.076 56.2259 148.551 57.0057 148.202 57.9858C147.861 58.9574 147.691 60.044 147.691 61.2457C147.691 62.4389 147.861 63.5213 148.202 64.4929C148.551 65.4645 149.076 66.2401 149.775 66.8196C150.482 67.3906 151.368 67.6761 152.434 67.6761ZM165.745 71V51.3636H170.168V54.7003H170.398C170.808 53.5753 171.485 52.6974 172.431 52.0668C173.377 51.4276 174.506 51.108 175.819 51.108C177.148 51.108 178.269 51.4318 179.181 52.0795C180.102 52.7187 180.749 53.5923 181.124 54.7003H181.329C181.763 53.6094 182.496 52.7401 183.528 52.0923C184.567 51.4361 185.799 51.108 187.222 51.108C189.029 51.108 190.504 51.679 191.646 52.821C192.788 53.9631 193.359 55.6293 193.359 57.8196V71H188.718V58.5355C188.718 57.3168 188.394 56.4261 187.746 55.8636C187.099 55.2926 186.306 55.0071 185.369 55.0071C184.252 55.0071 183.379 55.3565 182.748 56.0554C182.126 56.7457 181.815 57.6449 181.815 58.7528V71H177.276V58.3438C177.276 57.3295 176.969 56.5199 176.356 55.9148C175.751 55.3097 174.958 55.0071 173.978 55.0071C173.313 55.0071 172.708 55.1776 172.163 55.5185C171.617 55.8509 171.183 56.3239 170.859 56.9375C170.535 57.5426 170.373 58.25 170.373 59.0597V71H165.745ZM206.619 71.3835C204.701 71.3835 203.039 70.9616 201.633 70.1179C200.227 69.2741 199.136 68.0937 198.36 66.5767C197.593 65.0597 197.21 63.2869 197.21 61.2585C197.21 59.2301 197.593 57.4531 198.36 55.9276C199.136 54.402 200.227 53.2173 201.633 52.3736C203.039 51.5298 204.701 51.108 206.619 51.108C208.537 51.108 210.199 51.5298 211.605 52.3736C213.011 53.2173 214.098 54.402 214.865 55.9276C215.64 57.4531 216.028 59.2301 216.028 61.2585C216.028 63.2869 215.64 65.0597 214.865 66.5767C214.098 68.0937 213.011 69.2741 211.605 70.1179C210.199 70.9616 208.537 71.3835 206.619 71.3835ZM206.645 67.6761C207.684 67.6761 208.554 67.3906 209.252 66.8196C209.951 66.2401 210.471 65.4645 210.812 64.4929C211.162 63.5213 211.336 62.4389 211.336 61.2457C211.336 60.044 211.162 58.9574 210.812 57.9858C210.471 57.0057 209.951 56.2259 209.252 55.6463C208.554 55.0668 207.684 54.777 206.645 54.777C205.579 54.777 204.693 55.0668 203.985 55.6463C203.287 56.2259 202.762 57.0057 202.413 57.9858C202.072 58.9574 201.902 60.044 201.902 61.2457C201.902 62.4389 202.072 63.5213 202.413 64.4929C202.762 65.4645 203.287 66.2401 203.985 66.8196C204.693 67.3906 205.579 67.6761 206.645 67.6761ZM145.898 100.554L141.679 101.014C141.56 100.588 141.351 100.188 141.053 99.8125C140.763 99.4375 140.371 99.1349 139.876 98.9048C139.382 98.6747 138.777 98.5597 138.061 98.5597C137.098 98.5597 136.288 98.7685 135.632 99.1861C134.984 99.6037 134.665 100.145 134.673 100.81C134.665 101.381 134.874 101.845 135.3 102.203C135.734 102.561 136.45 102.855 137.447 103.085L140.797 103.801C142.655 104.202 144.036 104.837 144.939 105.706C145.851 106.575 146.311 107.713 146.32 109.119C146.311 110.355 145.949 111.446 145.233 112.392C144.526 113.33 143.541 114.062 142.28 114.591C141.018 115.119 139.57 115.384 137.933 115.384C135.53 115.384 133.595 114.881 132.129 113.875C130.663 112.861 129.79 111.45 129.509 109.643L134.021 109.209C134.226 110.095 134.661 110.764 135.325 111.216C135.99 111.668 136.855 111.893 137.92 111.893C139.02 111.893 139.902 111.668 140.567 111.216C141.24 110.764 141.577 110.206 141.577 109.541C141.577 108.979 141.359 108.514 140.925 108.148C140.499 107.781 139.834 107.5 138.93 107.304L135.581 106.601C133.697 106.209 132.304 105.548 131.401 104.619C130.497 103.682 130.05 102.497 130.058 101.065C130.05 99.8551 130.378 98.8068 131.043 97.9205C131.716 97.0256 132.649 96.3352 133.842 95.8494C135.044 95.3551 136.429 95.108 137.997 95.108C140.298 95.108 142.109 95.598 143.43 96.5781C144.76 97.5582 145.582 98.8835 145.898 100.554ZM150.136 115V95.3636H154.763V115H150.136ZM152.462 92.5767C151.729 92.5767 151.099 92.3338 150.57 91.848C150.042 91.3537 149.778 90.7614 149.778 90.071C149.778 89.3722 150.042 88.7798 150.57 88.294C151.099 87.7997 151.729 87.5526 152.462 87.5526C153.204 87.5526 153.835 87.7997 154.354 88.294C154.883 88.7798 155.147 89.3722 155.147 90.071C155.147 90.7614 154.883 91.3537 154.354 91.848C153.835 92.3338 153.204 92.5767 152.462 92.5767ZM169.328 95.3636V98.9432H158.039V95.3636H169.328ZM160.826 90.6591H165.454V109.094C165.454 109.716 165.548 110.193 165.735 110.526C165.931 110.849 166.187 111.071 166.502 111.19C166.818 111.31 167.167 111.369 167.551 111.369C167.841 111.369 168.105 111.348 168.343 111.305C168.591 111.263 168.778 111.224 168.906 111.19L169.686 114.808C169.439 114.893 169.085 114.987 168.625 115.089C168.173 115.192 167.619 115.251 166.963 115.268C165.804 115.303 164.76 115.128 163.831 114.744C162.902 114.352 162.164 113.747 161.619 112.929C161.082 112.111 160.818 111.088 160.826 109.861V90.6591ZM181.68 115.384C179.712 115.384 178.011 114.974 176.58 114.156C175.156 113.33 174.061 112.162 173.294 110.653C172.527 109.136 172.143 107.351 172.143 105.297C172.143 103.277 172.527 101.504 173.294 99.9787C174.07 98.4446 175.152 97.2514 176.541 96.3991C177.93 95.5384 179.562 95.108 181.438 95.108C182.648 95.108 183.79 95.304 184.864 95.696C185.946 96.0795 186.901 96.6761 187.727 97.4858C188.563 98.2955 189.219 99.3267 189.696 100.58C190.173 101.824 190.412 103.307 190.412 105.028V106.447H174.317V103.328H185.976C185.967 102.442 185.776 101.653 185.401 100.963C185.026 100.264 184.501 99.7145 183.828 99.3139C183.163 98.9134 182.388 98.7131 181.501 98.7131C180.555 98.7131 179.724 98.9432 179.009 99.4034C178.293 99.8551 177.734 100.452 177.334 101.193C176.942 101.926 176.741 102.732 176.733 103.609V106.332C176.733 107.474 176.942 108.455 177.359 109.273C177.777 110.082 178.361 110.705 179.111 111.139C179.861 111.565 180.739 111.778 181.744 111.778C182.418 111.778 183.027 111.685 183.572 111.497C184.118 111.301 184.591 111.016 184.991 110.641C185.392 110.266 185.695 109.801 185.899 109.247L190.22 109.733C189.947 110.875 189.428 111.872 188.661 112.724C187.902 113.568 186.93 114.224 185.746 114.693C184.561 115.153 183.206 115.384 181.68 115.384ZM198.955 88.8182V115H194.327V88.8182H198.955ZM212.407 115.384C210.438 115.384 208.738 114.974 207.306 114.156C205.883 113.33 204.788 112.162 204.021 110.653C203.254 109.136 202.87 107.351 202.87 105.297C202.87 103.277 203.254 101.504 204.021 99.9787C204.796 98.4446 205.879 97.2514 207.268 96.3991C208.657 95.5384 210.289 95.108 212.164 95.108C213.374 95.108 214.516 95.304 215.59 95.696C216.673 96.0795 217.627 96.6761 218.454 97.4858C219.289 98.2955 219.945 99.3267 220.423 100.58C220.9 101.824 221.138 103.307 221.138 105.028V106.447H205.043V103.328H216.702C216.694 102.442 216.502 101.653 216.127 100.963C215.752 100.264 215.228 99.7145 214.555 99.3139C213.89 98.9134 213.114 98.7131 212.228 98.7131C211.282 98.7131 210.451 98.9432 209.735 99.4034C209.019 99.8551 208.461 100.452 208.06 101.193C207.668 101.926 207.468 102.732 207.46 103.609V106.332C207.46 107.474 207.668 108.455 208.086 109.273C208.504 110.082 209.087 110.705 209.837 111.139C210.587 111.565 211.465 111.778 212.471 111.778C213.144 111.778 213.754 111.685 214.299 111.497C214.844 111.301 215.317 111.016 215.718 110.641C216.119 110.266 216.421 109.801 216.626 109.247L220.947 109.733C220.674 110.875 220.154 111.872 219.387 112.724C218.629 113.568 217.657 114.224 216.472 114.693C215.288 115.153 213.933 115.384 212.407 115.384ZM229.681 103.494V115H225.054V95.3636H229.477V98.7003H229.707C230.159 97.6009 230.879 96.7273 231.868 96.0795C232.865 95.4318 234.096 95.108 235.562 95.108C236.917 95.108 238.098 95.3977 239.103 95.9773C240.118 96.5568 240.902 97.3963 241.456 98.4957C242.018 99.5952 242.295 100.929 242.287 102.497V115H237.659V103.213C237.659 101.901 237.318 100.874 236.636 100.132C235.963 99.3906 235.029 99.0199 233.836 99.0199C233.027 99.0199 232.306 99.1989 231.676 99.5568C231.054 99.9062 230.564 100.413 230.206 101.078C229.856 101.743 229.681 102.548 229.681 103.494Z" fill="black"/>
</g>
<defs>
<clipPath id="clip0_1_2">
<rect width="256" height="160" fill="white"/>
</clipPath>
</defs>
</svg>
